<svg width="489" height="924" viewBox="0 0 489 924" fill="none" xmlns="http://www.w3.org/2000/svg">
<path d="M488.994 0H1.34784V2.79161H488.994V0Z" fill="#F2F0E4"/>
<path d="M446.927 47.4573C446.927 46.8432 447.424 46.3407 448.044 46.3407C448.658 46.3407 449.161 46.8432 449.161 47.4573C449.161 48.0715 448.658 48.574 448.044 48.574C447.424 48.574 446.927 48.0715 446.927 47.4573ZM402.258 47.4573C402.258 46.8432 402.755 46.3407 403.369 46.3407C403.989 46.3407 404.492 46.8432 404.492 47.4573C404.492 48.0715 403.989 48.574 403.369 48.574C402.755 48.574 402.258 48.0715 402.258 47.4573ZM357.589 47.4573C357.589 46.8432 358.086 46.3407 358.706 46.3407C359.32 46.3407 359.823 46.8432 359.823 47.4573C359.823 48.0715 359.32 48.574 358.706 48.574C358.086 48.574 357.589 48.0715 357.589 47.4573ZM312.92 47.4573C312.92 46.8432 313.417 46.3407 314.031 46.3407C314.651 46.3407 315.154 46.8432 315.154 47.4573C315.154 48.0715 314.651 48.574 314.031 48.574C313.417 48.574 312.92 48.0715 312.92 47.4573ZM268.251 47.4573C268.251 46.8432 268.748 46.3407 269.368 46.3407C269.982 46.3407 270.484 46.8432 270.484 47.4573C270.484 48.0715 269.982 48.574 269.368 48.574C268.748 48.574 268.251 48.0715 268.251 47.4573ZM223.576 47.4573C223.576 46.8432 224.079 46.3407 224.699 46.3407C225.313 46.3407 225.815 46.8432 225.815 47.4573C225.815 48.0715 225.313 48.574 224.699 48.574C224.079 48.574 223.576 48.0715 223.576 47.4573ZM178.913 47.4573C178.913 46.8432 179.41 46.3407 180.03 46.3407C180.644 46.3407 181.141 46.8432 181.141 47.4573C181.141 48.0715 180.644 48.574 180.03 48.574C179.41 48.574 178.913 48.0715 178.913 47.4573ZM134.238 47.4573C134.238 46.8432 134.741 46.3407 135.361 46.3407C135.975 46.3407 136.477 46.8432 136.477 47.4573C136.477 48.0715 135.975 48.574 135.361 48.574C134.741 48.574 134.238 48.0715 134.238 47.4573ZM89.5748 47.4573C89.5748 46.8432 90.0718 46.3407 90.6915 46.3407C91.3057 46.3407 91.8027 46.8432 91.8027 47.4573C91.8027 48.0715 91.3057 48.574 90.6915 48.574C90.0718 48.574 89.5748 48.0715 89.5748 47.4573ZM44.9002 47.4573C44.9002 46.8432 45.4027 46.3407 46.0225 46.3407C46.6367 46.3407 47.1392 46.8432 47.1392 47.4573C47.1392 48.0715 46.6367 48.574 46.0225 48.574C45.4027 48.574 44.9002 48.0715 44.9002 47.4573ZM0.236694 47.4573C0.236694 46.8432 0.733636 46.3407 1.34784 46.3407C1.96762 46.3407 2.46456 46.8432 2.46456 47.4573C2.46456 48.0715 1.96762 48.574 1.34784 48.574C0.733636 48.574 0.236694 48.0715 0.236694 47.4573Z" fill="#F2F0E4"/>
<path d="M446.927 93.5189C446.927 92.8991 447.424 92.4022 448.044 92.4022C448.658 92.4022 449.161 92.8991 449.161 93.5189C449.161 94.133 448.658 94.6355 448.044 94.6355C447.424 94.6355 446.927 94.133 446.927 93.5189ZM402.258 93.5189C402.258 92.8991 402.755 92.4022 403.369 92.4022C403.989 92.4022 404.492 92.8991 404.492 93.5189C404.492 94.133 403.989 94.6355 403.369 94.6355C402.755 94.6355 402.258 94.133 402.258 93.5189ZM357.589 93.5189C357.589 92.8991 358.086 92.4022 358.706 92.4022C359.32 92.4022 359.823 92.8991 359.823 93.5189C359.823 94.133 359.32 94.6355 358.706 94.6355C358.086 94.6355 357.589 94.133 357.589 93.5189ZM312.92 93.5189C312.92 92.8991 313.417 92.4022 314.031 92.4022C314.651 92.4022 315.154 92.8991 315.154 93.5189C315.154 94.133 314.651 94.6355 314.031 94.6355C313.417 94.6355 312.92 94.133 312.92 93.5189ZM268.251 93.5189C268.251 92.8991 268.748 92.4022 269.368 92.4022C269.982 92.4022 270.484 92.8991 270.484 93.5189C270.484 94.133 269.982 94.6355 269.368 94.6355C268.748 94.6355 268.251 94.133 268.251 93.5189ZM223.576 93.5189C223.576 92.8991 224.079 92.4022 224.699 92.4022C225.313 92.4022 225.815 92.8991 225.815 93.5189C225.815 94.133 225.313 94.6355 224.699 94.6355C224.079 94.6355 223.576 94.133 223.576 93.5189ZM178.913 93.5189C178.913 92.8991 179.41 92.4022 180.03 92.4022C180.644 92.4022 181.141 92.8991 181.141 93.5189C181.141 94.133 180.644 94.6355 180.03 94.6355C179.41 94.6355 178.913 94.133 178.913 93.5189ZM134.238 93.5189C134.238 92.8991 134.741 92.4022 135.361 92.4022C135.975 92.4022 136.477 92.8991 136.477 93.5189C136.477 94.133 135.975 94.6355 135.361 94.6355C134.741 94.6355 134.238 94.133 134.238 93.5189ZM89.5748 93.5189C89.5748 92.8991 90.0718 92.4022 90.6915 92.4022C91.3057 92.4022 91.8027 92.8991 91.8027 93.5189C91.8027 94.133 91.3057 94.6355 90.6915 94.6355C90.0718 94.6355 89.5748 94.133 89.5748 93.5189ZM44.9002 93.5189C44.9002 92.8991 45.4027 92.4022 46.0225 92.4022C46.6367 92.4022 47.1392 92.8991 47.1392 93.5189C47.1392 94.133 46.6367 94.6355 46.0225 94.6355C45.4027 94.6355 44.9002 94.133 44.9002 93.5189ZM0.236694 93.5189C0.236694 92.8991 0.733636 92.4022 1.34784 92.4022C1.96762 92.4022 2.46456 92.8991 2.46456 93.5189C2.46456 94.133 1.96762 94.6355 1.34784 94.6355C0.733636 94.6355 0.236694 94.133 0.236694 93.5189Z" fill="#F2F0E4"/>
<path d="M446.927 139.58C446.927 138.961 447.424 138.464 448.044 138.464C448.658 138.464 449.161 138.961 449.161 139.58C449.161 140.195 448.658 140.697 448.044 140.697C447.424 140.697 446.927 140.195 446.927 139.58ZM402.258 139.58C402.258 138.961 402.755 138.464 403.369 138.464C403.989 138.464 404.492 138.961 404.492 139.58C404.492 140.195 403.989 140.697 403.369 140.697C402.755 140.697 402.258 140.195 402.258 139.58ZM357.589 139.58C357.589 138.961 358.086 138.464 358.706 138.464C359.32 138.464 359.823 138.961 359.823 139.58C359.823 140.195 359.32 140.697 358.706 140.697C358.086 140.697 357.589 140.195 357.589 139.58ZM312.92 139.58C312.92 138.961 313.417 138.464 314.031 138.464C314.651 138.464 315.154 138.961 315.154 139.58C315.154 140.195 314.651 140.697 314.031 140.697C313.417 140.697 312.92 140.195 312.92 139.58ZM268.251 139.58C268.251 138.961 268.748 138.464 269.368 138.464C269.982 138.464 270.484 138.961 270.484 139.58C270.484 140.195 269.982 140.697 269.368 140.697C268.748 140.697 268.251 140.195 268.251 139.58ZM223.576 139.58C223.576 138.961 224.079 138.464 224.699 138.464C225.313 138.464 225.815 138.961 225.815 139.58C225.815 140.195 225.313 140.697 224.699 140.697C224.079 140.697 223.576 140.195 223.576 139.58ZM178.913 139.58C178.913 138.961 179.41 138.464 180.03 138.464C180.644 138.464 181.141 138.961 181.141 139.58C181.141 140.195 180.644 140.697 180.03 140.697C179.41 140.697 178.913 140.195 178.913 139.58ZM134.238 139.58C134.238 138.961 134.741 138.464 135.361 138.464C135.975 138.464 136.477 138.961 136.477 139.58C136.477 140.195 135.975 140.697 135.361 140.697C134.741 140.697 134.238 140.195 134.238 139.58ZM89.5748 139.58C89.5748 138.961 90.0718 138.464 90.6915 138.464C91.3057 138.464 91.8027 138.961 91.8027 139.58C91.8027 140.195 91.3057 140.697 90.6915 140.697C90.0718 140.697 89.5748 140.195 89.5748 139.58ZM44.9002 139.58C44.9002 138.961 45.4027 138.464 46.0225 138.464C46.6367 138.464 47.1392 138.961 47.1392 139.58C47.1392 140.195 46.6367 140.697 46.0225 140.697C45.4027 140.697 44.9002 140.195 44.9002 139.58ZM0.236694 139.58C0.236694 138.961 0.733636 138.464 1.34784 138.464C1.96762 138.464 2.46456 138.961 2.46456 139.58C2.46456 140.195 1.96762 140.697 1.34784 140.697C0.733636 140.697 0.236694 140.195 0.236694 139.58Z" fill="#F2F0E4"/>
<path d="M446.927 185.636C446.927 185.022 447.424 184.52 448.044 184.52C448.658 184.52 449.161 185.022 449.161 185.636C449.161 186.256 448.658 186.753 448.044 186.753C447.424 186.753 446.927 186.256 446.927 185.636ZM402.258 185.636C402.258 185.022 402.755 184.52 403.369 184.52C403.989 184.52 404.492 185.022 404.492 185.636C404.492 186.256 403.989 186.753 403.369 186.753C402.755 186.753 402.258 186.256 402.258 185.636ZM357.589 185.636C357.589 185.022 358.086 184.52 358.706 184.52C359.32 184.52 359.823 185.022 359.823 185.636C359.823 186.256 359.32 186.753 358.706 186.753C358.086 186.753 357.589 186.256 357.589 185.636ZM312.92 185.636C312.92 185.022 313.417 184.52 314.031 184.52C314.651 184.52 315.154 185.022 315.154 185.636C315.154 186.256 314.651 186.753 314.031 186.753C313.417 186.753 312.92 186.256 312.92 185.636ZM268.251 185.636C268.251 185.022 268.748 184.52 269.368 184.52C269.982 184.52 270.484 185.022 270.484 185.636C270.484 186.256 269.982 186.753 269.368 186.753C268.748 186.753 268.251 186.256 268.251 185.636ZM223.576 185.636C223.576 185.022 224.079 184.52 224.699 184.52C225.313 184.52 225.815 185.022 225.815 185.636C225.815 186.256 225.313 186.753 224.699 186.753C224.079 186.753 223.576 186.256 223.576 185.636ZM178.913 185.636C178.913 185.022 179.41 184.52 180.03 184.52C180.644 184.52 181.141 185.022 181.141 185.636C181.141 186.256 180.644 186.753 180.03 186.753C179.41 186.753 178.913 186.256 178.913 185.636ZM134.238 185.636C134.238 185.022 134.741 184.52 135.361 184.52C135.975 184.52 136.477 185.022 136.477 185.636C136.477 186.256 135.975 186.753 135.361 186.753C134.741 186.753 134.238 186.256 134.238 185.636ZM89.5748 185.636C89.5748 185.022 90.0718 184.52 90.6915 184.52C91.3057 184.52 91.8027 185.022 91.8027 185.636C91.8027 186.256 91.3057 186.753 90.6915 186.753C90.0718 186.753 89.5748 186.256 89.5748 185.636ZM44.9002 185.636C44.9002 185.022 45.4027 184.52 46.0225 184.52C46.6367 184.52 47.1392 185.022 47.1392 185.636C47.1392 186.256 46.6367 186.753 46.0225 186.753C45.4027 186.753 44.9002 186.256 44.9002 185.636ZM0.236694 185.636C0.236694 185.022 0.733636 184.52 1.34784 184.52C1.96762 184.52 2.46456 185.022 2.46456 185.636C2.46456 186.256 1.96762 186.753 1.34784 186.753C0.733636 186.753 0.236694 186.256 0.236694 185.636Z" fill="#F2F0E4"/>
<path d="M446.927 231.698C446.927 231.084 447.424 230.581 448.044 230.581C448.658 230.581 449.161 231.084 449.161 231.698C449.161 232.318 448.658 232.815 448.044 232.815C447.424 232.815 446.927 232.318 446.927 231.698ZM402.258 231.698C402.258 231.084 402.755 230.581 403.369 230.581C403.989 230.581 404.492 231.084 404.492 231.698C404.492 232.318 403.989 232.815 403.369 232.815C402.755 232.815 402.258 232.318 402.258 231.698ZM357.589 231.698C357.589 231.084 358.086 230.581 358.706 230.581C359.32 230.581 359.823 231.084 359.823 231.698C359.823 232.318 359.32 232.815 358.706 232.815C358.086 232.815 357.589 232.318 357.589 231.698ZM312.92 231.698C312.92 231.084 313.417 230.581 314.031 230.581C314.651 230.581 315.154 231.084 315.154 231.698C315.154 232.318 314.651 232.815 314.031 232.815C313.417 232.815 312.92 232.318 312.92 231.698ZM268.251 231.698C268.251 231.084 268.748 230.581 269.368 230.581C269.982 230.581 270.484 231.084 270.484 231.698C270.484 232.318 269.982 232.815 269.368 232.815C268.748 232.815 268.251 232.318 268.251 231.698ZM223.576 231.698C223.576 231.084 224.079 230.581 224.699 230.581C225.313 230.581 225.815 231.084 225.815 231.698C225.815 232.318 225.313 232.815 224.699 232.815C224.079 232.815 223.576 232.318 223.576 231.698ZM178.913 231.698C178.913 231.084 179.41 230.581 180.03 230.581C180.644 230.581 181.141 231.084 181.141 231.698C181.141 232.318 180.644 232.815 180.03 232.815C179.41 232.815 178.913 232.318 178.913 231.698ZM134.238 231.698C134.238 231.084 134.741 230.581 135.361 230.581C135.975 230.581 136.477 231.084 136.477 231.698C136.477 232.318 135.975 232.815 135.361 232.815C134.741 232.815 134.238 232.318 134.238 231.698ZM89.5748 231.698C89.5748 231.084 90.0718 230.581 90.6915 230.581C91.3057 230.581 91.8027 231.084 91.8027 231.698C91.8027 232.318 91.3057 232.815 90.6915 232.815C90.0718 232.815 89.5748 232.318 89.5748 231.698ZM44.9002 231.698C44.9002 231.084 45.4027 230.581 46.0225 230.581C46.6367 230.581 47.1392 231.084 47.1392 231.698C47.1392 232.318 46.6367 232.815 46.0225 232.815C45.4027 232.815 44.9002 232.318 44.9002 231.698ZM0.236694 231.698C0.236694 231.084 0.733636 230.581 1.34784 230.581C1.96762 230.581 2.46456 231.084 2.46456 231.698C2.46456 232.318 1.96762 232.815 1.34784 232.815C0.733636 232.815 0.236694 232.318 0.236694 231.698Z" fill="#F2F0E4"/>
<path d="M446.927 277.759C446.927 277.14 447.424 276.643 448.044 276.643C448.658 276.643 449.161 277.14 449.161 277.759C449.161 278.374 448.658 278.876 448.044 278.876C447.424 278.876 446.927 278.374 446.927 277.759ZM402.258 277.759C402.258 277.14 402.755 276.643 403.369 276.643C403.989 276.643 404.492 277.14 404.492 277.759C404.492 278.374 403.989 278.876 403.369 278.876C402.755 278.876 402.258 278.374 402.258 277.759ZM357.589 277.759C357.589 277.14 358.086 276.643 358.706 276.643C359.32 276.643 359.823 277.14 359.823 277.759C359.823 278.374 359.32 278.876 358.706 278.876C358.086 278.876 357.589 278.374 357.589 277.759ZM312.92 277.759C312.92 277.14 313.417 276.643 314.031 276.643C314.651 276.643 315.154 277.14 315.154 277.759C315.154 278.374 314.651 278.876 314.031 278.876C313.417 278.876 312.92 278.374 312.92 277.759ZM268.251 277.759C268.251 277.14 268.748 276.643 269.368 276.643C269.982 276.643 270.484 277.14 270.484 277.759C270.484 278.374 269.982 278.876 269.368 278.876C268.748 278.876 268.251 278.374 268.251 277.759ZM223.576 277.759C223.576 277.14 224.079 276.643 224.699 276.643C225.313 276.643 225.815 277.14 225.815 277.759C225.815 278.374 225.313 278.876 224.699 278.876C224.079 278.876 223.576 278.374 223.576 277.759ZM178.913 277.759C178.913 277.14 179.41 276.643 180.03 276.643C180.644 276.643 181.141 277.14 181.141 277.759C181.141 278.374 180.644 278.876 180.03 278.876C179.41 278.876 178.913 278.374 178.913 277.759ZM134.238 277.759C134.238 277.14 134.741 276.643 135.361 276.643C135.975 276.643 136.477 277.14 136.477 277.759C136.477 278.374 135.975 278.876 135.361 278.876C134.741 278.876 134.238 278.374 134.238 277.759ZM89.5748 277.759C89.5748 277.14 90.0718 276.643 90.6915 276.643C91.3057 276.643 91.8027 277.14 91.8027 277.759C91.8027 278.374 91.3057 278.876 90.6915 278.876C90.0718 278.876 89.5748 278.374 89.5748 277.759ZM44.9002 277.759C44.9002 277.14 45.4027 276.643 46.0225 276.643C46.6367 276.643 47.1392 277.14 47.1392 277.759C47.1392 278.374 46.6367 278.876 46.0225 278.876C45.4027 278.876 44.9002 278.374 44.9002 277.759ZM0.236694 277.759C0.236694 277.14 0.733636 276.643 1.34784 276.643C1.96762 276.643 2.46456 277.14 2.46456 277.759C2.46456 278.374 1.96762 278.876 1.34784 278.876C0.733636 278.876 0.236694 278.374 0.236694 277.759Z" fill="#F2F0E4"/>
<path d="M446.927 323.821C446.927 323.201 447.424 322.704 448.044 322.704C448.658 322.704 449.161 323.201 449.161 323.821C449.161 324.435 448.658 324.938 448.044 324.938C447.424 324.938 446.927 324.435 446.927 323.821ZM402.258 323.821C402.258 323.201 402.755 322.704 403.369 322.704C403.989 322.704 404.492 323.201 404.492 323.821C404.492 324.435 403.989 324.938 403.369 324.938C402.755 324.938 402.258 324.435 402.258 323.821ZM357.589 323.821C357.589 323.201 358.086 322.704 358.706 322.704C359.32 322.704 359.823 323.201 359.823 323.821C359.823 324.435 359.32 324.938 358.706 324.938C358.086 324.938 357.589 324.435 357.589 323.821ZM312.92 323.821C312.92 323.201 313.417 322.704 314.031 322.704C314.651 322.704 315.154 323.201 315.154 323.821C315.154 324.435 314.651 324.938 314.031 324.938C313.417 324.938 312.92 324.435 312.92 323.821ZM268.251 323.821C268.251 323.201 268.748 322.704 269.368 322.704C269.982 322.704 270.484 323.201 270.484 323.821C270.484 324.435 269.982 324.938 269.368 324.938C268.748 324.938 268.251 324.435 268.251 323.821ZM223.576 323.821C223.576 323.201 224.079 322.704 224.699 322.704C225.313 322.704 225.815 323.201 225.815 323.821C225.815 324.435 225.313 324.938 224.699 324.938C224.079 324.938 223.576 324.435 223.576 323.821ZM178.913 323.821C178.913 323.201 179.41 322.704 180.03 322.704C180.644 322.704 181.141 323.201 181.141 323.821C181.141 324.435 180.644 324.938 180.03 324.938C179.41 324.938 178.913 324.435 178.913 323.821ZM134.238 323.821C134.238 323.201 134.741 322.704 135.361 322.704C135.975 322.704 136.477 323.201 136.477 323.821C136.477 324.435 135.975 324.938 135.361 324.938C134.741 324.938 134.238 324.435 134.238 323.821ZM89.5748 323.821C89.5748 323.201 90.0718 322.704 90.6915 322.704C91.3057 322.704 91.8027 323.201 91.8027 323.821C91.8027 324.435 91.3057 324.938 90.6915 324.938C90.0718 324.938 89.5748 324.435 89.5748 323.821ZM44.9002 323.821C44.9002 323.201 45.4027 322.704 46.0225 322.704C46.6367 322.704 47.1392 323.201 47.1392 323.821C47.1392 324.435 46.6367 324.938 46.0225 324.938C45.4027 324.938 44.9002 324.435 44.9002 323.821ZM0.236694 323.821C0.236694 323.201 0.733636 322.704 1.34784 322.704C1.96762 322.704 2.46456 323.201 2.46456 323.821C2.46456 324.435 1.96762 324.938 1.34784 324.938C0.733636 324.938 0.236694 324.435 0.236694 323.821Z" fill="#F2F0E4"/>
<path d="M446.927 369.883C446.927 369.263 447.424 368.766 448.044 368.766C448.658 368.766 449.161 369.263 449.161 369.883C449.161 370.497 448.658 370.994 448.044 370.994C447.424 370.994 446.927 370.497 446.927 369.883ZM402.258 369.883C402.258 369.263 402.755 368.766 403.369 368.766C403.989 368.766 404.492 369.263 404.492 369.883C404.492 370.497 403.989 370.994 403.369 370.994C402.755 370.994 402.258 370.497 402.258 369.883ZM357.589 369.883C357.589 369.263 358.086 368.766 358.706 368.766C359.32 368.766 359.823 369.263 359.823 369.883C359.823 370.497 359.32 370.994 358.706 370.994C358.086 370.994 357.589 370.497 357.589 369.883ZM312.92 369.883C312.92 369.263 313.417 368.766 314.031 368.766C314.651 368.766 315.154 369.263 315.154 369.883C315.154 370.497 314.651 370.994 314.031 370.994C313.417 370.994 312.92 370.497 312.92 369.883ZM268.251 369.883C268.251 369.263 268.748 368.766 269.368 368.766C269.982 368.766 270.484 369.263 270.484 369.883C270.484 370.497 269.982 370.994 269.368 370.994C268.748 370.994 268.251 370.497 268.251 369.883ZM223.576 369.883C223.576 369.263 224.079 368.766 224.699 368.766C225.313 368.766 225.815 369.263 225.815 369.883C225.815 370.497 225.313 370.994 224.699 370.994C224.079 370.994 223.576 370.497 223.576 369.883ZM178.913 369.883C178.913 369.263 179.41 368.766 180.03 368.766C180.644 368.766 181.141 369.263 181.141 369.883C181.141 370.497 180.644 370.994 180.03 370.994C179.41 370.994 178.913 370.497 178.913 369.883ZM134.238 369.883C134.238 369.263 134.741 368.766 135.361 368.766C135.975 368.766 136.477 369.263 136.477 369.883C136.477 370.497 135.975 370.994 135.361 370.994C134.741 370.994 134.238 370.497 134.238 369.883ZM89.5748 369.883C89.5748 369.263 90.0718 368.766 90.6915 368.766C91.3057 368.766 91.8027 369.263 91.8027 369.883C91.8027 370.497 91.3057 370.994 90.6915 370.994C90.0718 370.994 89.5748 370.497 89.5748 369.883ZM44.9002 369.883C44.9002 369.263 45.4027 368.766 46.0225 368.766C46.6367 368.766 47.1392 369.263 47.1392 369.883C47.1392 370.497 46.6367 370.994 46.0225 370.994C45.4027 370.994 44.9002 370.497 44.9002 369.883ZM0.236694 369.883C0.236694 369.263 0.733636 368.766 1.34784 368.766C1.96762 368.766 2.46456 369.263 2.46456 369.883C2.46456 370.497 1.96762 370.994 1.34784 370.994C0.733636 370.994 0.236694 370.497 0.236694 369.883Z" fill="#F2F0E4"/>
<path d="M446.927 415.938C446.927 415.324 447.424 414.822 448.044 414.822C448.658 414.822 449.161 415.324 449.161 415.938C449.161 416.558 448.658 417.055 448.044 417.055C447.424 417.055 446.927 416.558 446.927 415.938ZM402.258 415.938C402.258 415.324 402.755 414.822 403.369 414.822C403.989 414.822 404.492 415.324 404.492 415.938C404.492 416.558 403.989 417.055 403.369 417.055C402.755 417.055 402.258 416.558 402.258 415.938ZM357.589 415.938C357.589 415.324 358.086 414.822 358.706 414.822C359.32 414.822 359.823 415.324 359.823 415.938C359.823 416.558 359.32 417.055 358.706 417.055C358.086 417.055 357.589 416.558 357.589 415.938ZM312.92 415.938C312.92 415.324 313.417 414.822 314.031 414.822C314.651 414.822 315.154 415.324 315.154 415.938C315.154 416.558 314.651 417.055 314.031 417.055C313.417 417.055 312.92 416.558 312.92 415.938ZM268.251 415.938C268.251 415.324 268.748 414.822 269.368 414.822C269.982 414.822 270.484 415.324 270.484 415.938C270.484 416.558 269.982 417.055 269.368 417.055C268.748 417.055 268.251 416.558 268.251 415.938ZM223.576 415.938C223.576 415.324 224.079 414.822 224.699 414.822C225.313 414.822 225.815 415.324 225.815 415.938C225.815 416.558 225.313 417.055 224.699 417.055C224.079 417.055 223.576 416.558 223.576 415.938ZM178.913 415.938C178.913 415.324 179.41 414.822 180.03 414.822C180.644 414.822 181.141 415.324 181.141 415.938C181.141 416.558 180.644 417.055 180.03 417.055C179.41 417.055 178.913 416.558 178.913 415.938ZM134.238 415.938C134.238 415.324 134.741 414.822 135.361 414.822C135.975 414.822 136.477 415.324 136.477 415.938C136.477 416.558 135.975 417.055 135.361 417.055C134.741 417.055 134.238 416.558 134.238 415.938ZM89.5748 415.938C89.5748 415.324 90.0718 414.822 90.6915 414.822C91.3057 414.822 91.8027 415.324 91.8027 415.938C91.8027 416.558 91.3057 417.055 90.6915 417.055C90.0718 417.055 89.5748 416.558 89.5748 415.938ZM44.9002 415.938C44.9002 415.324 45.4027 414.822 46.0225 414.822C46.6367 414.822 47.1392 415.324 47.1392 415.938C47.1392 416.558 46.6367 417.055 46.0225 417.055C45.4027 417.055 44.9002 416.558 44.9002 415.938ZM0.236694 415.938C0.236694 415.324 0.733636 414.822 1.34784 414.822C1.96762 414.822 2.46456 415.324 2.46456 415.938C2.46456 416.558 1.96762 417.055 1.34784 417.055C0.733636 417.055 0.236694 416.558 0.236694 415.938Z" fill="#F2F0E4"/>
<path d="M488.994 460.604H1.34784V463.396H488.994V460.604Z" fill="#F2F0E4"/>
<path d="M446.927 508.062C446.927 507.442 447.424 506.945 448.044 506.945C448.658 506.945 449.161 507.442 449.161 508.062C449.161 508.676 448.658 509.178 448.044 509.178C447.424 509.178 446.927 508.676 446.927 508.062ZM402.258 508.062C402.258 507.442 402.755 506.945 403.369 506.945C403.989 506.945 404.492 507.442 404.492 508.062C404.492 508.676 403.989 509.178 403.369 509.178C402.755 509.178 402.258 508.676 402.258 508.062ZM357.589 508.062C357.589 507.442 358.086 506.945 358.706 506.945C359.32 506.945 359.823 507.442 359.823 508.062C359.823 508.676 359.32 509.178 358.706 509.178C358.086 509.178 357.589 508.676 357.589 508.062ZM312.92 508.062C312.92 507.442 313.417 506.945 314.031 506.945C314.651 506.945 315.154 507.442 315.154 508.062C315.154 508.676 314.651 509.178 314.031 509.178C313.417 509.178 312.92 508.676 312.92 508.062ZM268.251 508.062C268.251 507.442 268.748 506.945 269.368 506.945C269.982 506.945 270.484 507.442 270.484 508.062C270.484 508.676 269.982 509.178 269.368 509.178C268.748 509.178 268.251 508.676 268.251 508.062ZM223.576 508.062C223.576 507.442 224.079 506.945 224.699 506.945C225.313 506.945 225.815 507.442 225.815 508.062C225.815 508.676 225.313 509.178 224.699 509.178C224.079 509.178 223.576 508.676 223.576 508.062ZM178.913 508.062C178.913 507.442 179.41 506.945 180.03 506.945C180.644 506.945 181.141 507.442 181.141 508.062C181.141 508.676 180.644 509.178 180.03 509.178C179.41 509.178 178.913 508.676 178.913 508.062ZM134.238 508.062C134.238 507.442 134.741 506.945 135.361 506.945C135.975 506.945 136.477 507.442 136.477 508.062C136.477 508.676 135.975 509.178 135.361 509.178C134.741 509.178 134.238 508.676 134.238 508.062ZM89.5748 508.062C89.5748 507.442 90.0718 506.945 90.6915 506.945C91.3057 506.945 91.8027 507.442 91.8027 508.062C91.8027 508.676 91.3057 509.178 90.6915 509.178C90.0718 509.178 89.5748 508.676 89.5748 508.062ZM44.9002 508.062C44.9002 507.442 45.4027 506.945 46.0225 506.945C46.6367 506.945 47.1392 507.442 47.1392 508.062C47.1392 508.676 46.6367 509.178 46.0225 509.178C45.4027 509.178 44.9002 508.676 44.9002 508.062ZM0.236694 508.062C0.236694 507.442 0.733636 506.945 1.34784 506.945C1.96762 506.945 2.46456 507.442 2.46456 508.062C2.46456 508.676 1.96762 509.178 1.34784 509.178C0.733636 509.178 0.236694 508.676 0.236694 508.062Z" fill="#F2F0E4"/>
<path d="M446.927 554.123C446.927 553.503 447.424 553.006 448.044 553.006C448.658 553.006 449.161 553.503 449.161 554.123C449.161 554.737 448.658 555.24 448.044 555.24C447.424 555.24 446.927 554.737 446.927 554.123ZM402.258 554.123C402.258 553.503 402.755 553.006 403.369 553.006C403.989 553.006 404.492 553.503 404.492 554.123C404.492 554.737 403.989 555.24 403.369 555.24C402.755 555.24 402.258 554.737 402.258 554.123ZM357.589 554.123C357.589 553.503 358.086 553.006 358.706 553.006C359.32 553.006 359.823 553.503 359.823 554.123C359.823 554.737 359.32 555.24 358.706 555.24C358.086 555.24 357.589 554.737 357.589 554.123ZM312.92 554.123C312.92 553.503 313.417 553.006 314.031 553.006C314.651 553.006 315.154 553.503 315.154 554.123C315.154 554.737 314.651 555.24 314.031 555.24C313.417 555.24 312.92 554.737 312.92 554.123ZM268.251 554.123C268.251 553.503 268.748 553.006 269.368 553.006C269.982 553.006 270.484 553.503 270.484 554.123C270.484 554.737 269.982 555.24 269.368 555.24C268.748 555.24 268.251 554.737 268.251 554.123ZM223.576 554.123C223.576 553.503 224.079 553.006 224.699 553.006C225.313 553.006 225.815 553.503 225.815 554.123C225.815 554.737 225.313 555.24 224.699 555.24C224.079 555.24 223.576 554.737 223.576 554.123ZM178.913 554.123C178.913 553.503 179.41 553.006 180.03 553.006C180.644 553.006 181.141 553.503 181.141 554.123C181.141 554.737 180.644 555.24 180.03 555.24C179.41 555.24 178.913 554.737 178.913 554.123ZM134.238 554.123C134.238 553.503 134.741 553.006 135.361 553.006C135.975 553.006 136.477 553.503 136.477 554.123C136.477 554.737 135.975 555.24 135.361 555.24C134.741 555.24 134.238 554.737 134.238 554.123ZM89.5748 554.123C89.5748 553.503 90.0718 553.006 90.6915 553.006C91.3057 553.006 91.8027 553.503 91.8027 554.123C91.8027 554.737 91.3057 555.24 90.6915 555.24C90.0718 555.24 89.5748 554.737 89.5748 554.123ZM44.9002 554.123C44.9002 553.503 45.4027 553.006 46.0225 553.006C46.6367 553.006 47.1392 553.503 47.1392 554.123C47.1392 554.737 46.6367 555.24 46.0225 555.24C45.4027 555.24 44.9002 554.737 44.9002 554.123ZM0.236694 554.123C0.236694 553.503 0.733636 553.006 1.34784 553.006C1.96762 553.006 2.46456 553.503 2.46456 554.123C2.46456 554.737 1.96762 555.24 1.34784 555.24C0.733636 555.24 0.236694 554.737 0.236694 554.123Z" fill="#F2F0E4"/>
<path d="M446.927 600.179C446.927 599.565 447.424 599.062 448.044 599.062C448.658 599.062 449.161 599.565 449.161 600.179C449.161 600.799 448.658 601.296 448.044 601.296C447.424 601.296 446.927 600.799 446.927 600.179ZM402.258 600.179C402.258 599.565 402.755 599.062 403.369 599.062C403.989 599.062 404.492 599.565 404.492 600.179C404.492 600.799 403.989 601.296 403.369 601.296C402.755 601.296 402.258 600.799 402.258 600.179ZM357.589 600.179C357.589 599.565 358.086 599.062 358.706 599.062C359.32 599.062 359.823 599.565 359.823 600.179C359.823 600.799 359.32 601.296 358.706 601.296C358.086 601.296 357.589 600.799 357.589 600.179ZM312.92 600.179C312.92 599.565 313.417 599.062 314.031 599.062C314.651 599.062 315.154 599.565 315.154 600.179C315.154 600.799 314.651 601.296 314.031 601.296C313.417 601.296 312.92 600.799 312.92 600.179ZM268.251 600.179C268.251 599.565 268.748 599.062 269.368 599.062C269.982 599.062 270.484 599.565 270.484 600.179C270.484 600.799 269.982 601.296 269.368 601.296C268.748 601.296 268.251 600.799 268.251 600.179ZM223.576 600.179C223.576 599.565 224.079 599.062 224.699 599.062C225.313 599.062 225.815 599.565 225.815 600.179C225.815 600.799 225.313 601.296 224.699 601.296C224.079 601.296 223.576 600.799 223.576 600.179ZM178.913 600.179C178.913 599.565 179.41 599.062 180.03 599.062C180.644 599.062 181.141 599.565 181.141 600.179C181.141 600.799 180.644 601.296 180.03 601.296C179.41 601.296 178.913 600.799 178.913 600.179ZM134.238 600.179C134.238 599.565 134.741 599.062 135.361 599.062C135.975 599.062 136.477 599.565 136.477 600.179C136.477 600.799 135.975 601.296 135.361 601.296C134.741 601.296 134.238 600.799 134.238 600.179ZM89.5748 600.179C89.5748 599.565 90.0718 599.062 90.6915 599.062C91.3057 599.062 91.8027 599.565 91.8027 600.179C91.8027 600.799 91.3057 601.296 90.6915 601.296C90.0718 601.296 89.5748 600.799 89.5748 600.179ZM44.9002 600.179C44.9002 599.565 45.4027 599.062 46.0225 599.062C46.6367 599.062 47.1392 599.565 47.1392 600.179C47.1392 600.799 46.6367 601.296 46.0225 601.296C45.4027 601.296 44.9002 600.799 44.9002 600.179ZM0.236694 600.179C0.236694 599.565 0.733636 599.062 1.34784 599.062C1.96762 599.062 2.46456 599.565 2.46456 600.179C2.46456 600.799 1.96762 601.296 1.34784 601.296C0.733636 601.296 0.236694 600.799 0.236694 600.179Z" fill="#F2F0E4"/>
<path d="M446.927 646.241C446.927 645.626 447.424 645.124 448.044 645.124C448.658 645.124 449.161 645.626 449.161 646.241C449.161 646.86 448.658 647.357 448.044 647.357C447.424 647.357 446.927 646.86 446.927 646.241ZM402.258 646.241C402.258 645.626 402.755 645.124 403.369 645.124C403.989 645.124 404.492 645.626 404.492 646.241C404.492 646.86 403.989 647.357 403.369 647.357C402.755 647.357 402.258 646.86 402.258 646.241ZM357.589 646.241C357.589 645.626 358.086 645.124 358.706 645.124C359.32 645.124 359.823 645.626 359.823 646.241C359.823 646.86 359.32 647.357 358.706 647.357C358.086 647.357 357.589 646.86 357.589 646.241ZM312.92 646.241C312.92 645.626 313.417 645.124 314.031 645.124C314.651 645.124 315.154 645.626 315.154 646.241C315.154 646.86 314.651 647.357 314.031 647.357C313.417 647.357 312.92 646.86 312.92 646.241ZM268.251 646.241C268.251 645.626 268.748 645.124 269.368 645.124C269.982 645.124 270.484 645.626 270.484 646.241C270.484 646.86 269.982 647.357 269.368 647.357C268.748 647.357 268.251 646.86 268.251 646.241ZM223.576 646.241C223.576 645.626 224.079 645.124 224.699 645.124C225.313 645.124 225.815 645.626 225.815 646.241C225.815 646.86 225.313 647.357 224.699 647.357C224.079 647.357 223.576 646.86 223.576 646.241ZM178.913 646.241C178.913 645.626 179.41 645.124 180.03 645.124C180.644 645.124 181.141 645.626 181.141 646.241C181.141 646.86 180.644 647.357 180.03 647.357C179.41 647.357 178.913 646.86 178.913 646.241ZM134.238 646.241C134.238 645.626 134.741 645.124 135.361 645.124C135.975 645.124 136.477 645.626 136.477 646.241C136.477 646.86 135.975 647.357 135.361 647.357C134.741 647.357 134.238 646.86 134.238 646.241ZM89.5748 646.241C89.5748 645.626 90.0718 645.124 90.6915 645.124C91.3057 645.124 91.8027 645.626 91.8027 646.241C91.8027 646.86 91.3057 647.357 90.6915 647.357C90.0718 647.357 89.5748 646.86 89.5748 646.241ZM44.9002 646.241C44.9002 645.626 45.4027 645.124 46.0225 645.124C46.6367 645.124 47.1392 645.626 47.1392 646.241C47.1392 646.86 46.6367 647.357 46.0225 647.357C45.4027 647.357 44.9002 646.86 44.9002 646.241ZM0.236694 646.241C0.236694 645.626 0.733636 645.124 1.34784 645.124C1.96762 645.124 2.46456 645.626 2.46456 646.241C2.46456 646.86 1.96762 647.357 1.34784 647.357C0.733636 647.357 0.236694 646.86 0.236694 646.241Z" fill="#F2F0E4"/>
<path d="M446.927 692.302C446.927 691.688 447.424 691.185 448.044 691.185C448.658 691.185 449.161 691.688 449.161 692.302C449.161 692.916 448.658 693.419 448.044 693.419C447.424 693.419 446.927 692.916 446.927 692.302ZM402.258 692.302C402.258 691.688 402.755 691.185 403.369 691.185C403.989 691.185 404.492 691.688 404.492 692.302C404.492 692.916 403.989 693.419 403.369 693.419C402.755 693.419 402.258 692.916 402.258 692.302ZM357.589 692.302C357.589 691.688 358.086 691.185 358.706 691.185C359.32 691.185 359.823 691.688 359.823 692.302C359.823 692.916 359.32 693.419 358.706 693.419C358.086 693.419 357.589 692.916 357.589 692.302ZM312.92 692.302C312.92 691.688 313.417 691.185 314.031 691.185C314.651 691.185 315.154 691.688 315.154 692.302C315.154 692.916 314.651 693.419 314.031 693.419C313.417 693.419 312.92 692.916 312.92 692.302ZM268.251 692.302C268.251 691.688 268.748 691.185 269.368 691.185C269.982 691.185 270.484 691.688 270.484 692.302C270.484 692.916 269.982 693.419 269.368 693.419C268.748 693.419 268.251 692.916 268.251 692.302ZM223.576 692.302C223.576 691.688 224.079 691.185 224.699 691.185C225.313 691.185 225.815 691.688 225.815 692.302C225.815 692.916 225.313 693.419 224.699 693.419C224.079 693.419 223.576 692.916 223.576 692.302ZM178.913 692.302C178.913 691.688 179.41 691.185 180.03 691.185C180.644 691.185 181.141 691.688 181.141 692.302C181.141 692.916 180.644 693.419 180.03 693.419C179.41 693.419 178.913 692.916 178.913 692.302ZM134.238 692.302C134.238 691.688 134.741 691.185 135.361 691.185C135.975 691.185 136.477 691.688 136.477 692.302C136.477 692.916 135.975 693.419 135.361 693.419C134.741 693.419 134.238 692.916 134.238 692.302ZM89.5748 692.302C89.5748 691.688 90.0718 691.185 90.6915 691.185C91.3057 691.185 91.8027 691.688 91.8027 692.302C91.8027 692.916 91.3057 693.419 90.6915 693.419C90.0718 693.419 89.5748 692.916 89.5748 692.302ZM44.9002 692.302C44.9002 691.688 45.4027 691.185 46.0225 691.185C46.6367 691.185 47.1392 691.688 47.1392 692.302C47.1392 692.916 46.6367 693.419 46.0225 693.419C45.4027 693.419 44.9002 692.916 44.9002 692.302ZM0.236694 692.302C0.236694 691.688 0.733636 691.185 1.34784 691.185C1.96762 691.185 2.46456 691.688 2.46456 692.302C2.46456 692.916 1.96762 693.419 1.34784 693.419C0.733636 693.419 0.236694 692.916 0.236694 692.302Z" fill="#F2F0E4"/>
<path d="M446.927 738.364C446.927 737.744 447.424 737.247 448.044 737.247C448.658 737.247 449.161 737.744 449.161 738.364C449.161 738.978 448.658 739.48 448.044 739.48C447.424 739.48 446.927 738.978 446.927 738.364ZM402.258 738.364C402.258 737.744 402.755 737.247 403.369 737.247C403.989 737.247 404.492 737.744 404.492 738.364C404.492 738.978 403.989 739.48 403.369 739.48C402.755 739.48 402.258 738.978 402.258 738.364ZM357.589 738.364C357.589 737.744 358.086 737.247 358.706 737.247C359.32 737.247 359.823 737.744 359.823 738.364C359.823 738.978 359.32 739.48 358.706 739.48C358.086 739.48 357.589 738.978 357.589 738.364ZM312.92 738.364C312.92 737.744 313.417 737.247 314.031 737.247C314.651 737.247 315.154 737.744 315.154 738.364C315.154 738.978 314.651 739.48 314.031 739.48C313.417 739.48 312.92 738.978 312.92 738.364ZM268.251 738.364C268.251 737.744 268.748 737.247 269.368 737.247C269.982 737.247 270.484 737.744 270.484 738.364C270.484 738.978 269.982 739.48 269.368 739.48C268.748 739.48 268.251 738.978 268.251 738.364ZM223.576 738.364C223.576 737.744 224.079 737.247 224.699 737.247C225.313 737.247 225.815 737.744 225.815 738.364C225.815 738.978 225.313 739.48 224.699 739.48C224.079 739.48 223.576 738.978 223.576 738.364ZM178.913 738.364C178.913 737.744 179.41 737.247 180.03 737.247C180.644 737.247 181.141 737.744 181.141 738.364C181.141 738.978 180.644 739.48 180.03 739.48C179.41 739.48 178.913 738.978 178.913 738.364ZM134.238 738.364C134.238 737.744 134.741 737.247 135.361 737.247C135.975 737.247 136.477 737.744 136.477 738.364C136.477 738.978 135.975 739.48 135.361 739.48C134.741 739.48 134.238 738.978 134.238 738.364ZM89.5748 738.364C89.5748 737.744 90.0718 737.247 90.6915 737.247C91.3057 737.247 91.8027 737.744 91.8027 738.364C91.8027 738.978 91.3057 739.48 90.6915 739.48C90.0718 739.48 89.5748 738.978 89.5748 738.364ZM44.9002 738.364C44.9002 737.744 45.4027 737.247 46.0225 737.247C46.6367 737.247 47.1392 737.744 47.1392 738.364C47.1392 738.978 46.6367 739.48 46.0225 739.48C45.4027 739.48 44.9002 738.978 44.9002 738.364ZM0.236694 738.364C0.236694 737.744 0.733636 737.247 1.34784 737.247C1.96762 737.247 2.46456 737.744 2.46456 738.364C2.46456 738.978 1.96762 739.48 1.34784 739.48C0.733636 739.48 0.236694 738.978 0.236694 738.364Z" fill="#F2F0E4"/>
<path d="M446.927 784.42C446.927 783.805 447.424 783.309 448.044 783.309C448.658 783.309 449.161 783.805 449.161 784.42C449.161 785.039 448.658 785.536 448.044 785.536C447.424 785.536 446.927 785.039 446.927 784.42ZM402.258 784.42C402.258 783.805 402.755 783.309 403.369 783.309C403.989 783.309 404.492 783.805 404.492 784.42C404.492 785.039 403.989 785.536 403.369 785.536C402.755 785.536 402.258 785.039 402.258 784.42ZM357.589 784.42C357.589 783.805 358.086 783.309 358.706 783.309C359.32 783.309 359.823 783.805 359.823 784.42C359.823 785.039 359.32 785.536 358.706 785.536C358.086 785.536 357.589 785.039 357.589 784.42ZM312.92 784.42C312.92 783.805 313.417 783.309 314.031 783.309C314.651 783.309 315.154 783.805 315.154 784.42C315.154 785.039 314.651 785.536 314.031 785.536C313.417 785.536 312.92 785.039 312.92 784.42ZM268.251 784.42C268.251 783.805 268.748 783.309 269.368 783.309C269.982 783.309 270.484 783.805 270.484 784.42C270.484 785.039 269.982 785.536 269.368 785.536C268.748 785.536 268.251 785.039 268.251 784.42ZM223.576 784.42C223.576 783.805 224.079 783.309 224.699 783.309C225.313 783.309 225.815 783.805 225.815 784.42C225.815 785.039 225.313 785.536 224.699 785.536C224.079 785.536 223.576 785.039 223.576 784.42ZM178.913 784.42C178.913 783.805 179.41 783.309 180.03 783.309C180.644 783.309 181.141 783.805 181.141 784.42C181.141 785.039 180.644 785.536 180.03 785.536C179.41 785.536 178.913 785.039 178.913 784.42ZM134.238 784.42C134.238 783.805 134.741 783.309 135.361 783.309C135.975 783.309 136.477 783.805 136.477 784.42C136.477 785.039 135.975 785.536 135.361 785.536C134.741 785.536 134.238 785.039 134.238 784.42ZM89.5748 784.42C89.5748 783.805 90.0718 783.309 90.6915 783.309C91.3057 783.309 91.8027 783.805 91.8027 784.42C91.8027 785.039 91.3057 785.536 90.6915 785.536C90.0718 785.536 89.5748 785.039 89.5748 784.42ZM44.9002 784.42C44.9002 783.805 45.4027 783.309 46.0225 783.309C46.6367 783.309 47.1392 783.805 47.1392 784.42C47.1392 785.039 46.6367 785.536 46.0225 785.536C45.4027 785.536 44.9002 785.039 44.9002 784.42ZM0.236694 784.42C0.236694 783.805 0.733636 783.309 1.34784 783.309C1.96762 783.309 2.46456 783.805 2.46456 784.42C2.46456 785.039 1.96762 785.536 1.34784 785.536C0.733636 785.536 0.236694 785.039 0.236694 784.42Z" fill="#F2F0E4"/>
<path d="M446.927 830.481C446.927 829.867 447.424 829.365 448.044 829.365C448.658 829.365 449.161 829.867 449.161 830.481C449.161 831.101 448.658 831.598 448.044 831.598C447.424 831.598 446.927 831.101 446.927 830.481ZM402.258 830.481C402.258 829.867 402.755 829.365 403.369 829.365C403.989 829.365 404.492 829.867 404.492 830.481C404.492 831.101 403.989 831.598 403.369 831.598C402.755 831.598 402.258 831.101 402.258 830.481ZM357.589 830.481C357.589 829.867 358.086 829.365 358.706 829.365C359.32 829.365 359.823 829.867 359.823 830.481C359.823 831.101 359.32 831.598 358.706 831.598C358.086 831.598 357.589 831.101 357.589 830.481ZM312.92 830.481C312.92 829.867 313.417 829.365 314.031 829.365C314.651 829.365 315.154 829.867 315.154 830.481C315.154 831.101 314.651 831.598 314.031 831.598C313.417 831.598 312.92 831.101 312.92 830.481ZM268.251 830.481C268.251 829.867 268.748 829.365 269.368 829.365C269.982 829.365 270.484 829.867 270.484 830.481C270.484 831.101 269.982 831.598 269.368 831.598C268.748 831.598 268.251 831.101 268.251 830.481ZM223.576 830.481C223.576 829.867 224.079 829.365 224.699 829.365C225.313 829.365 225.815 829.867 225.815 830.481C225.815 831.101 225.313 831.598 224.699 831.598C224.079 831.598 223.576 831.101 223.576 830.481ZM178.913 830.481C178.913 829.867 179.41 829.365 180.03 829.365C180.644 829.365 181.141 829.867 181.141 830.481C181.141 831.101 180.644 831.598 180.03 831.598C179.41 831.598 178.913 831.101 178.913 830.481ZM134.238 830.481C134.238 829.867 134.741 829.365 135.361 829.365C135.975 829.365 136.477 829.867 136.477 830.481C136.477 831.101 135.975 831.598 135.361 831.598C134.741 831.598 134.238 831.101 134.238 830.481ZM89.5748 830.481C89.5748 829.867 90.0718 829.365 90.6915 829.365C91.3057 829.365 91.8027 829.867 91.8027 830.481C91.8027 831.101 91.3057 831.598 90.6915 831.598C90.0718 831.598 89.5748 831.101 89.5748 830.481ZM44.9002 830.481C44.9002 829.867 45.4027 829.365 46.0225 829.365C46.6367 829.365 47.1392 829.867 47.1392 830.481C47.1392 831.101 46.6367 831.598 46.0225 831.598C45.4027 831.598 44.9002 831.101 44.9002 830.481ZM0.236694 830.481C0.236694 829.867 0.733636 829.365 1.34784 829.365C1.96762 829.365 2.46456 829.867 2.46456 830.481C2.46456 831.101 1.96762 831.598 1.34784 831.598C0.733636 831.598 0.236694 831.101 0.236694 830.481Z" fill="#F2F0E4"/>
<path d="M446.927 876.543C446.927 875.929 447.424 875.426 448.044 875.426C448.658 875.426 449.161 875.929 449.161 876.543C449.161 877.162 448.658 877.659 448.044 877.659C447.424 877.659 446.927 877.162 446.927 876.543ZM402.258 876.543C402.258 875.929 402.755 875.426 403.369 875.426C403.989 875.426 404.492 875.929 404.492 876.543C404.492 877.162 403.989 877.659 403.369 877.659C402.755 877.659 402.258 877.162 402.258 876.543ZM357.589 876.543C357.589 875.929 358.086 875.426 358.706 875.426C359.32 875.426 359.823 875.929 359.823 876.543C359.823 877.162 359.32 877.659 358.706 877.659C358.086 877.659 357.589 877.162 357.589 876.543ZM312.92 876.543C312.92 875.929 313.417 875.426 314.031 875.426C314.651 875.426 315.154 875.929 315.154 876.543C315.154 877.162 314.651 877.659 314.031 877.659C313.417 877.659 312.92 877.162 312.92 876.543ZM268.251 876.543C268.251 875.929 268.748 875.426 269.368 875.426C269.982 875.426 270.484 875.929 270.484 876.543C270.484 877.162 269.982 877.659 269.368 877.659C268.748 877.659 268.251 877.162 268.251 876.543ZM223.576 876.543C223.576 875.929 224.079 875.426 224.699 875.426C225.313 875.426 225.815 875.929 225.815 876.543C225.815 877.162 225.313 877.659 224.699 877.659C224.079 877.659 223.576 877.162 223.576 876.543ZM178.913 876.543C178.913 875.929 179.41 875.426 180.03 875.426C180.644 875.426 181.141 875.929 181.141 876.543C181.141 877.162 180.644 877.659 180.03 877.659C179.41 877.659 178.913 877.162 178.913 876.543ZM134.238 876.543C134.238 875.929 134.741 875.426 135.361 875.426C135.975 875.426 136.477 875.929 136.477 876.543C136.477 877.162 135.975 877.659 135.361 877.659C134.741 877.659 134.238 877.162 134.238 876.543ZM89.5748 876.543C89.5748 875.929 90.0718 875.426 90.6915 875.426C91.3057 875.426 91.8027 875.929 91.8027 876.543C91.8027 877.162 91.3057 877.659 90.6915 877.659C90.0718 877.659 89.5748 877.162 89.5748 876.543ZM44.9002 876.543C44.9002 875.929 45.4027 875.426 46.0225 875.426C46.6367 875.426 47.1392 875.929 47.1392 876.543C47.1392 877.162 46.6367 877.659 46.0225 877.659C45.4027 877.659 44.9002 877.162 44.9002 876.543ZM0.236694 876.543C0.236694 875.929 0.733636 875.426 1.34784 875.426C1.96762 875.426 2.46456 875.929 2.46456 876.543C2.46456 877.162 1.96762 877.659 1.34784 877.659C0.733636 877.659 0.236694 877.162 0.236694 876.543Z" fill="#F2F0E4"/>
<path d="M488.994 921.208H1.34784V924H488.994V921.208Z" fill="#F2F0E4"/>
</svg>