<svg width="527" height="924" viewBox="0 0 527 924" fill="none" xmlns="http://www.w3.org/2000/svg">
<g clip-path="url(#clip0_187_52)">
<path d="M0.402005 11.881L5.042 6.88964C5.81254 6.0689 6.09731 5.31517 6.09731 4.64518C6.09731 3.47271 5.34352 2.68547 4.0872 2.68547C2.69688 2.68547 1.85933 3.50621 1.85933 5.19792H0.385254C0.385254 2.73572 1.90959 1.39575 4.10395 1.39575C6.16431 1.39575 7.55464 2.66873 7.55464 4.62843C7.55464 5.81766 7.03536 6.77239 6.18106 7.67687L2.26135 11.8978H7.7724V13.2378H0.402005V11.881Z" fill="#F2F0E4"/>
<path d="M11.0221 12.484C9.78249 11.2948 9.58148 9.67008 9.58148 7.42563C9.58148 5.18117 9.78249 3.55646 11.0221 2.36723C11.6251 1.79774 12.4459 1.39575 13.652 1.39575C14.858 1.39575 15.6788 1.79774 16.2818 2.36723C17.5214 3.55646 17.7224 5.18117 17.7224 7.42563C17.7224 9.67008 17.5214 11.2948 16.2818 12.484C15.6788 13.0535 14.858 13.4722 13.652 13.4722C12.4459 13.4722 11.6251 13.0535 11.0221 12.484ZM15.2265 11.6298C16.0641 10.8593 16.2316 9.85433 16.2316 7.42563C16.2316 5.66691 16.1981 4.12594 15.2265 3.23821C14.8748 2.91997 14.3052 2.70222 13.652 2.70222C12.9987 2.70222 12.4291 2.91997 12.0774 3.23821C11.1058 4.12594 11.0723 5.66691 11.0723 7.42563C11.0723 9.90457 11.2566 10.8761 12.0774 11.6298C12.4291 11.948 12.9987 12.1658 13.652 12.1658C14.3052 12.1658 14.8748 11.948 15.2265 11.6298Z" fill="#F2F0E4"/>
<path d="M21.2401 12.484C20.0006 11.2948 19.7996 9.67008 19.7996 7.42563C19.7996 5.18117 20.0006 3.55646 21.2401 2.36723C21.8432 1.79774 22.664 1.39575 23.87 1.39575C25.0761 1.39575 25.8969 1.79774 26.4999 2.36723C27.7395 3.55646 27.9405 5.18117 27.9405 7.42563C27.9405 9.67008 27.7395 11.2948 26.4999 12.484C25.8969 13.0535 25.0761 13.4722 23.87 13.4722C22.664 13.4722 21.8432 13.0535 21.2401 12.484ZM25.4446 11.6298C26.2822 10.8593 26.4497 9.85433 26.4497 7.42563C26.4497 5.66691 26.4162 4.12594 25.4446 3.23821C25.0928 2.91997 24.5233 2.70222 23.87 2.70222C23.2167 2.70222 22.6472 2.91997 22.2954 3.23821C21.3239 4.12594 21.2904 5.66691 21.2904 7.42563C21.2904 9.90457 21.4747 10.8761 22.2954 11.6298C22.6472 11.948 23.2167 12.1658 23.87 12.1658C24.5233 12.1658 25.0928 11.948 25.4446 11.6298Z" fill="#F2F0E4"/>
<path d="M0 459.945V458.354L3.01516 456.193H4.38874V467.801H2.93141V457.818L0 459.945Z" fill="#F2F0E4"/>
<path d="M8.47598 467.047C7.23641 465.858 7.0354 464.233 7.0354 461.989C7.0354 459.744 7.23641 458.12 8.47598 456.93C9.07901 456.361 9.8998 455.959 11.1059 455.959C12.3119 455.959 13.1327 456.361 13.7358 456.93C14.9753 458.12 15.1763 459.744 15.1763 461.989C15.1763 464.233 14.9753 465.858 13.7358 467.047C13.1327 467.617 12.3119 468.035 11.1059 468.035C9.8998 468.035 9.07901 467.617 8.47598 467.047ZM12.6805 466.193C13.518 465.423 13.6855 464.418 13.6855 461.989C13.6855 460.23 13.652 458.689 12.6805 457.801C12.3287 457.483 11.7592 457.265 11.1059 457.265C10.4526 457.265 9.88305 457.483 9.53128 457.801C8.55973 458.689 8.52623 460.23 8.52623 461.989C8.52623 464.468 8.71049 465.439 9.53128 466.193C9.88305 466.511 10.4526 466.729 11.1059 466.729C11.7592 466.729 12.3287 466.511 12.6805 466.193Z" fill="#F2F0E4"/>
<path d="M18.694 467.047C17.4544 465.858 17.2534 464.233 17.2534 461.989C17.2534 459.744 17.4544 458.12 18.694 456.93C19.297 456.361 20.1178 455.959 21.3239 455.959C22.53 455.959 23.3507 456.361 23.9538 456.93C25.1933 458.12 25.3944 459.744 25.3944 461.989C25.3944 464.233 25.1933 465.858 23.9538 467.047C23.3507 467.617 22.53 468.035 21.3239 468.035C20.1178 468.035 19.297 467.617 18.694 467.047ZM22.8985 466.193C23.736 465.423 23.9035 464.418 23.9035 461.989C23.9035 460.23 23.87 458.689 22.8985 457.801C22.5467 457.483 21.9772 457.265 21.3239 457.265C20.6706 457.265 20.1011 457.483 19.7493 457.801C18.7777 458.689 18.7442 460.23 18.7442 461.989C18.7442 464.468 18.9285 465.439 19.7493 466.193C20.1011 466.511 20.6706 466.729 21.3239 466.729C21.9772 466.729 22.5467 466.511 22.8985 466.193Z" fill="#F2F0E4"/>
<path d="M2.06038 921.381C0.737063 920.109 0.435547 918.333 0.435547 916.44C0.435547 914.548 0.737063 912.789 2.06038 911.533C2.93143 910.695 4.10399 910.26 5.32681 910.26C7.70544 910.26 9.64854 911.884 9.74904 914.213H8.22471C8.14096 912.705 6.90139 911.667 5.32681 911.667C4.45576 911.667 3.65172 911.968 3.08219 912.571C2.09389 913.593 1.97663 915.201 1.97663 916.44C1.97663 917.68 2.09389 919.271 3.08219 920.293C3.65172 920.896 4.50601 921.197 5.32681 921.197C7.01865 921.197 8.12421 920.159 8.24146 918.584H9.7658C9.64854 920.996 7.63843 922.604 5.32681 922.604C4.10399 922.604 2.93143 922.219 2.06038 921.381Z" fill="#F2F0E4"/>
<path d="M23.5183 910.494V922.37H22.0945V912.203L18.426 922.202H17.22L13.5515 912.119V922.37H12.1277V910.494H14.3388L17.8565 920.159L21.3574 910.494H23.5183Z" fill="#F2F0E4"/>
<path d="M526.994 0H39.3478V2.79161H526.994V0Z" fill="#F2F0E4"/>
<path d="M484.927 47.4573C484.927 46.8432 485.424 46.3407 486.044 46.3407C486.658 46.3407 487.161 46.8432 487.161 47.4573C487.161 48.0715 486.658 48.574 486.044 48.574C485.424 48.574 484.927 48.0715 484.927 47.4573ZM440.258 47.4573C440.258 46.8432 440.755 46.3407 441.369 46.3407C441.989 46.3407 442.492 46.8432 442.492 47.4573C442.492 48.0715 441.989 48.574 441.369 48.574C440.755 48.574 440.258 48.0715 440.258 47.4573ZM395.589 47.4573C395.589 46.8432 396.086 46.3407 396.706 46.3407C397.32 46.3407 397.823 46.8432 397.823 47.4573C397.823 48.0715 397.32 48.574 396.706 48.574C396.086 48.574 395.589 48.0715 395.589 47.4573ZM350.92 47.4573C350.92 46.8432 351.417 46.3407 352.031 46.3407C352.651 46.3407 353.154 46.8432 353.154 47.4573C353.154 48.0715 352.651 48.574 352.031 48.574C351.417 48.574 350.92 48.0715 350.92 47.4573ZM306.251 47.4573C306.251 46.8432 306.748 46.3407 307.368 46.3407C307.982 46.3407 308.484 46.8432 308.484 47.4573C308.484 48.0715 307.982 48.574 307.368 48.574C306.748 48.574 306.251 48.0715 306.251 47.4573ZM261.576 47.4573C261.576 46.8432 262.079 46.3407 262.699 46.3407C263.313 46.3407 263.815 46.8432 263.815 47.4573C263.815 48.0715 263.313 48.574 262.699 48.574C262.079 48.574 261.576 48.0715 261.576 47.4573ZM216.913 47.4573C216.913 46.8432 217.41 46.3407 218.03 46.3407C218.644 46.3407 219.141 46.8432 219.141 47.4573C219.141 48.0715 218.644 48.574 218.03 48.574C217.41 48.574 216.913 48.0715 216.913 47.4573ZM172.238 47.4573C172.238 46.8432 172.741 46.3407 173.361 46.3407C173.975 46.3407 174.477 46.8432 174.477 47.4573C174.477 48.0715 173.975 48.574 173.361 48.574C172.741 48.574 172.238 48.0715 172.238 47.4573ZM127.575 47.4573C127.575 46.8432 128.072 46.3407 128.692 46.3407C129.306 46.3407 129.803 46.8432 129.803 47.4573C129.803 48.0715 129.306 48.574 128.692 48.574C128.072 48.574 127.575 48.0715 127.575 47.4573ZM82.9002 47.4573C82.9002 46.8432 83.4027 46.3407 84.0225 46.3407C84.6367 46.3407 85.1392 46.8432 85.1392 47.4573C85.1392 48.0715 84.6367 48.574 84.0225 48.574C83.4027 48.574 82.9002 48.0715 82.9002 47.4573ZM38.2367 47.4573C38.2367 46.8432 38.7336 46.3407 39.3478 46.3407C39.9676 46.3407 40.4646 46.8432 40.4646 47.4573C40.4646 48.0715 39.9676 48.574 39.3478 48.574C38.7336 48.574 38.2367 48.0715 38.2367 47.4573Z" fill="#F2F0E4"/>
<path d="M484.927 93.5189C484.927 92.8991 485.424 92.4022 486.044 92.4022C486.658 92.4022 487.161 92.8991 487.161 93.5189C487.161 94.133 486.658 94.6355 486.044 94.6355C485.424 94.6355 484.927 94.133 484.927 93.5189ZM440.258 93.5189C440.258 92.8991 440.755 92.4022 441.369 92.4022C441.989 92.4022 442.492 92.8991 442.492 93.5189C442.492 94.133 441.989 94.6355 441.369 94.6355C440.755 94.6355 440.258 94.133 440.258 93.5189ZM395.589 93.5189C395.589 92.8991 396.086 92.4022 396.706 92.4022C397.32 92.4022 397.823 92.8991 397.823 93.5189C397.823 94.133 397.32 94.6355 396.706 94.6355C396.086 94.6355 395.589 94.133 395.589 93.5189ZM350.92 93.5189C350.92 92.8991 351.417 92.4022 352.031 92.4022C352.651 92.4022 353.154 92.8991 353.154 93.5189C353.154 94.133 352.651 94.6355 352.031 94.6355C351.417 94.6355 350.92 94.133 350.92 93.5189ZM306.251 93.5189C306.251 92.8991 306.748 92.4022 307.368 92.4022C307.982 92.4022 308.484 92.8991 308.484 93.5189C308.484 94.133 307.982 94.6355 307.368 94.6355C306.748 94.6355 306.251 94.133 306.251 93.5189ZM261.576 93.5189C261.576 92.8991 262.079 92.4022 262.699 92.4022C263.313 92.4022 263.815 92.8991 263.815 93.5189C263.815 94.133 263.313 94.6355 262.699 94.6355C262.079 94.6355 261.576 94.133 261.576 93.5189ZM216.913 93.5189C216.913 92.8991 217.41 92.4022 218.03 92.4022C218.644 92.4022 219.141 92.8991 219.141 93.5189C219.141 94.133 218.644 94.6355 218.03 94.6355C217.41 94.6355 216.913 94.133 216.913 93.5189ZM172.238 93.5189C172.238 92.8991 172.741 92.4022 173.361 92.4022C173.975 92.4022 174.477 92.8991 174.477 93.5189C174.477 94.133 173.975 94.6355 173.361 94.6355C172.741 94.6355 172.238 94.133 172.238 93.5189ZM127.575 93.5189C127.575 92.8991 128.072 92.4022 128.692 92.4022C129.306 92.4022 129.803 92.8991 129.803 93.5189C129.803 94.133 129.306 94.6355 128.692 94.6355C128.072 94.6355 127.575 94.133 127.575 93.5189ZM82.9002 93.5189C82.9002 92.8991 83.4027 92.4022 84.0225 92.4022C84.6367 92.4022 85.1392 92.8991 85.1392 93.5189C85.1392 94.133 84.6367 94.6355 84.0225 94.6355C83.4027 94.6355 82.9002 94.133 82.9002 93.5189ZM38.2367 93.5189C38.2367 92.8991 38.7336 92.4022 39.3478 92.4022C39.9676 92.4022 40.4646 92.8991 40.4646 93.5189C40.4646 94.133 39.9676 94.6355 39.3478 94.6355C38.7336 94.6355 38.2367 94.133 38.2367 93.5189Z" fill="#F2F0E4"/>
<path d="M484.927 139.58C484.927 138.961 485.424 138.464 486.044 138.464C486.658 138.464 487.161 138.961 487.161 139.58C487.161 140.195 486.658 140.697 486.044 140.697C485.424 140.697 484.927 140.195 484.927 139.58ZM440.258 139.58C440.258 138.961 440.755 138.464 441.369 138.464C441.989 138.464 442.492 138.961 442.492 139.58C442.492 140.195 441.989 140.697 441.369 140.697C440.755 140.697 440.258 140.195 440.258 139.58ZM395.589 139.58C395.589 138.961 396.086 138.464 396.706 138.464C397.32 138.464 397.823 138.961 397.823 139.58C397.823 140.195 397.32 140.697 396.706 140.697C396.086 140.697 395.589 140.195 395.589 139.58ZM350.92 139.58C350.92 138.961 351.417 138.464 352.031 138.464C352.651 138.464 353.154 138.961 353.154 139.58C353.154 140.195 352.651 140.697 352.031 140.697C351.417 140.697 350.92 140.195 350.92 139.58ZM306.251 139.58C306.251 138.961 306.748 138.464 307.368 138.464C307.982 138.464 308.484 138.961 308.484 139.58C308.484 140.195 307.982 140.697 307.368 140.697C306.748 140.697 306.251 140.195 306.251 139.58ZM261.576 139.58C261.576 138.961 262.079 138.464 262.699 138.464C263.313 138.464 263.815 138.961 263.815 139.58C263.815 140.195 263.313 140.697 262.699 140.697C262.079 140.697 261.576 140.195 261.576 139.58ZM216.913 139.58C216.913 138.961 217.41 138.464 218.03 138.464C218.644 138.464 219.141 138.961 219.141 139.58C219.141 140.195 218.644 140.697 218.03 140.697C217.41 140.697 216.913 140.195 216.913 139.58ZM172.238 139.58C172.238 138.961 172.741 138.464 173.361 138.464C173.975 138.464 174.477 138.961 174.477 139.58C174.477 140.195 173.975 140.697 173.361 140.697C172.741 140.697 172.238 140.195 172.238 139.58ZM127.575 139.58C127.575 138.961 128.072 138.464 128.692 138.464C129.306 138.464 129.803 138.961 129.803 139.58C129.803 140.195 129.306 140.697 128.692 140.697C128.072 140.697 127.575 140.195 127.575 139.58ZM82.9002 139.58C82.9002 138.961 83.4027 138.464 84.0225 138.464C84.6367 138.464 85.1392 138.961 85.1392 139.58C85.1392 140.195 84.6367 140.697 84.0225 140.697C83.4027 140.697 82.9002 140.195 82.9002 139.58ZM38.2367 139.58C38.2367 138.961 38.7336 138.464 39.3478 138.464C39.9676 138.464 40.4646 138.961 40.4646 139.58C40.4646 140.195 39.9676 140.697 39.3478 140.697C38.7336 140.697 38.2367 140.195 38.2367 139.58Z" fill="#F2F0E4"/>
<path d="M484.927 185.636C484.927 185.022 485.424 184.52 486.044 184.52C486.658 184.52 487.161 185.022 487.161 185.636C487.161 186.256 486.658 186.753 486.044 186.753C485.424 186.753 484.927 186.256 484.927 185.636ZM440.258 185.636C440.258 185.022 440.755 184.52 441.369 184.52C441.989 184.52 442.492 185.022 442.492 185.636C442.492 186.256 441.989 186.753 441.369 186.753C440.755 186.753 440.258 186.256 440.258 185.636ZM395.589 185.636C395.589 185.022 396.086 184.52 396.706 184.52C397.32 184.52 397.823 185.022 397.823 185.636C397.823 186.256 397.32 186.753 396.706 186.753C396.086 186.753 395.589 186.256 395.589 185.636ZM350.92 185.636C350.92 185.022 351.417 184.52 352.031 184.52C352.651 184.52 353.154 185.022 353.154 185.636C353.154 186.256 352.651 186.753 352.031 186.753C351.417 186.753 350.92 186.256 350.92 185.636ZM306.251 185.636C306.251 185.022 306.748 184.52 307.368 184.52C307.982 184.52 308.484 185.022 308.484 185.636C308.484 186.256 307.982 186.753 307.368 186.753C306.748 186.753 306.251 186.256 306.251 185.636ZM261.576 185.636C261.576 185.022 262.079 184.52 262.699 184.52C263.313 184.52 263.815 185.022 263.815 185.636C263.815 186.256 263.313 186.753 262.699 186.753C262.079 186.753 261.576 186.256 261.576 185.636ZM216.913 185.636C216.913 185.022 217.41 184.52 218.03 184.52C218.644 184.52 219.141 185.022 219.141 185.636C219.141 186.256 218.644 186.753 218.03 186.753C217.41 186.753 216.913 186.256 216.913 185.636ZM172.238 185.636C172.238 185.022 172.741 184.52 173.361 184.52C173.975 184.52 174.477 185.022 174.477 185.636C174.477 186.256 173.975 186.753 173.361 186.753C172.741 186.753 172.238 186.256 172.238 185.636ZM127.575 185.636C127.575 185.022 128.072 184.52 128.692 184.52C129.306 184.52 129.803 185.022 129.803 185.636C129.803 186.256 129.306 186.753 128.692 186.753C128.072 186.753 127.575 186.256 127.575 185.636ZM82.9002 185.636C82.9002 185.022 83.4027 184.52 84.0225 184.52C84.6367 184.52 85.1392 185.022 85.1392 185.636C85.1392 186.256 84.6367 186.753 84.0225 186.753C83.4027 186.753 82.9002 186.256 82.9002 185.636ZM38.2367 185.636C38.2367 185.022 38.7336 184.52 39.3478 184.52C39.9676 184.52 40.4646 185.022 40.4646 185.636C40.4646 186.256 39.9676 186.753 39.3478 186.753C38.7336 186.753 38.2367 186.256 38.2367 185.636Z" fill="#F2F0E4"/>
<path d="M484.927 231.698C484.927 231.084 485.424 230.581 486.044 230.581C486.658 230.581 487.161 231.084 487.161 231.698C487.161 232.318 486.658 232.815 486.044 232.815C485.424 232.815 484.927 232.318 484.927 231.698ZM440.258 231.698C440.258 231.084 440.755 230.581 441.369 230.581C441.989 230.581 442.492 231.084 442.492 231.698C442.492 232.318 441.989 232.815 441.369 232.815C440.755 232.815 440.258 232.318 440.258 231.698ZM395.589 231.698C395.589 231.084 396.086 230.581 396.706 230.581C397.32 230.581 397.823 231.084 397.823 231.698C397.823 232.318 397.32 232.815 396.706 232.815C396.086 232.815 395.589 232.318 395.589 231.698ZM350.92 231.698C350.92 231.084 351.417 230.581 352.031 230.581C352.651 230.581 353.154 231.084 353.154 231.698C353.154 232.318 352.651 232.815 352.031 232.815C351.417 232.815 350.92 232.318 350.92 231.698ZM306.251 231.698C306.251 231.084 306.748 230.581 307.368 230.581C307.982 230.581 308.484 231.084 308.484 231.698C308.484 232.318 307.982 232.815 307.368 232.815C306.748 232.815 306.251 232.318 306.251 231.698ZM261.576 231.698C261.576 231.084 262.079 230.581 262.699 230.581C263.313 230.581 263.815 231.084 263.815 231.698C263.815 232.318 263.313 232.815 262.699 232.815C262.079 232.815 261.576 232.318 261.576 231.698ZM216.913 231.698C216.913 231.084 217.41 230.581 218.03 230.581C218.644 230.581 219.141 231.084 219.141 231.698C219.141 232.318 218.644 232.815 218.03 232.815C217.41 232.815 216.913 232.318 216.913 231.698ZM172.238 231.698C172.238 231.084 172.741 230.581 173.361 230.581C173.975 230.581 174.477 231.084 174.477 231.698C174.477 232.318 173.975 232.815 173.361 232.815C172.741 232.815 172.238 232.318 172.238 231.698ZM127.575 231.698C127.575 231.084 128.072 230.581 128.692 230.581C129.306 230.581 129.803 231.084 129.803 231.698C129.803 232.318 129.306 232.815 128.692 232.815C128.072 232.815 127.575 232.318 127.575 231.698ZM82.9002 231.698C82.9002 231.084 83.4027 230.581 84.0225 230.581C84.6367 230.581 85.1392 231.084 85.1392 231.698C85.1392 232.318 84.6367 232.815 84.0225 232.815C83.4027 232.815 82.9002 232.318 82.9002 231.698ZM38.2367 231.698C38.2367 231.084 38.7336 230.581 39.3478 230.581C39.9676 230.581 40.4646 231.084 40.4646 231.698C40.4646 232.318 39.9676 232.815 39.3478 232.815C38.7336 232.815 38.2367 232.318 38.2367 231.698Z" fill="#F2F0E4"/>
<path d="M484.927 277.759C484.927 277.14 485.424 276.643 486.044 276.643C486.658 276.643 487.161 277.14 487.161 277.759C487.161 278.374 486.658 278.876 486.044 278.876C485.424 278.876 484.927 278.374 484.927 277.759ZM440.258 277.759C440.258 277.14 440.755 276.643 441.369 276.643C441.989 276.643 442.492 277.14 442.492 277.759C442.492 278.374 441.989 278.876 441.369 278.876C440.755 278.876 440.258 278.374 440.258 277.759ZM395.589 277.759C395.589 277.14 396.086 276.643 396.706 276.643C397.32 276.643 397.823 277.14 397.823 277.759C397.823 278.374 397.32 278.876 396.706 278.876C396.086 278.876 395.589 278.374 395.589 277.759ZM350.92 277.759C350.92 277.14 351.417 276.643 352.031 276.643C352.651 276.643 353.154 277.14 353.154 277.759C353.154 278.374 352.651 278.876 352.031 278.876C351.417 278.876 350.92 278.374 350.92 277.759ZM306.251 277.759C306.251 277.14 306.748 276.643 307.368 276.643C307.982 276.643 308.484 277.14 308.484 277.759C308.484 278.374 307.982 278.876 307.368 278.876C306.748 278.876 306.251 278.374 306.251 277.759ZM261.576 277.759C261.576 277.14 262.079 276.643 262.699 276.643C263.313 276.643 263.815 277.14 263.815 277.759C263.815 278.374 263.313 278.876 262.699 278.876C262.079 278.876 261.576 278.374 261.576 277.759ZM216.913 277.759C216.913 277.14 217.41 276.643 218.03 276.643C218.644 276.643 219.141 277.14 219.141 277.759C219.141 278.374 218.644 278.876 218.03 278.876C217.41 278.876 216.913 278.374 216.913 277.759ZM172.238 277.759C172.238 277.14 172.741 276.643 173.361 276.643C173.975 276.643 174.477 277.14 174.477 277.759C174.477 278.374 173.975 278.876 173.361 278.876C172.741 278.876 172.238 278.374 172.238 277.759ZM127.575 277.759C127.575 277.14 128.072 276.643 128.692 276.643C129.306 276.643 129.803 277.14 129.803 277.759C129.803 278.374 129.306 278.876 128.692 278.876C128.072 278.876 127.575 278.374 127.575 277.759ZM82.9002 277.759C82.9002 277.14 83.4027 276.643 84.0225 276.643C84.6367 276.643 85.1392 277.14 85.1392 277.759C85.1392 278.374 84.6367 278.876 84.0225 278.876C83.4027 278.876 82.9002 278.374 82.9002 277.759ZM38.2367 277.759C38.2367 277.14 38.7336 276.643 39.3478 276.643C39.9676 276.643 40.4646 277.14 40.4646 277.759C40.4646 278.374 39.9676 278.876 39.3478 278.876C38.7336 278.876 38.2367 278.374 38.2367 277.759Z" fill="#F2F0E4"/>
<path d="M484.927 323.821C484.927 323.201 485.424 322.704 486.044 322.704C486.658 322.704 487.161 323.201 487.161 323.821C487.161 324.435 486.658 324.938 486.044 324.938C485.424 324.938 484.927 324.435 484.927 323.821ZM440.258 323.821C440.258 323.201 440.755 322.704 441.369 322.704C441.989 322.704 442.492 323.201 442.492 323.821C442.492 324.435 441.989 324.938 441.369 324.938C440.755 324.938 440.258 324.435 440.258 323.821ZM395.589 323.821C395.589 323.201 396.086 322.704 396.706 322.704C397.32 322.704 397.823 323.201 397.823 323.821C397.823 324.435 397.32 324.938 396.706 324.938C396.086 324.938 395.589 324.435 395.589 323.821ZM350.92 323.821C350.92 323.201 351.417 322.704 352.031 322.704C352.651 322.704 353.154 323.201 353.154 323.821C353.154 324.435 352.651 324.938 352.031 324.938C351.417 324.938 350.92 324.435 350.92 323.821ZM306.251 323.821C306.251 323.201 306.748 322.704 307.368 322.704C307.982 322.704 308.484 323.201 308.484 323.821C308.484 324.435 307.982 324.938 307.368 324.938C306.748 324.938 306.251 324.435 306.251 323.821ZM261.576 323.821C261.576 323.201 262.079 322.704 262.699 322.704C263.313 322.704 263.815 323.201 263.815 323.821C263.815 324.435 263.313 324.938 262.699 324.938C262.079 324.938 261.576 324.435 261.576 323.821ZM216.913 323.821C216.913 323.201 217.41 322.704 218.03 322.704C218.644 322.704 219.141 323.201 219.141 323.821C219.141 324.435 218.644 324.938 218.03 324.938C217.41 324.938 216.913 324.435 216.913 323.821ZM172.238 323.821C172.238 323.201 172.741 322.704 173.361 322.704C173.975 322.704 174.477 323.201 174.477 323.821C174.477 324.435 173.975 324.938 173.361 324.938C172.741 324.938 172.238 324.435 172.238 323.821ZM127.575 323.821C127.575 323.201 128.072 322.704 128.692 322.704C129.306 322.704 129.803 323.201 129.803 323.821C129.803 324.435 129.306 324.938 128.692 324.938C128.072 324.938 127.575 324.435 127.575 323.821ZM82.9002 323.821C82.9002 323.201 83.4027 322.704 84.0225 322.704C84.6367 322.704 85.1392 323.201 85.1392 323.821C85.1392 324.435 84.6367 324.938 84.0225 324.938C83.4027 324.938 82.9002 324.435 82.9002 323.821ZM38.2367 323.821C38.2367 323.201 38.7336 322.704 39.3478 322.704C39.9676 322.704 40.4646 323.201 40.4646 323.821C40.4646 324.435 39.9676 324.938 39.3478 324.938C38.7336 324.938 38.2367 324.435 38.2367 323.821Z" fill="#F2F0E4"/>
<path d="M484.927 369.883C484.927 369.263 485.424 368.766 486.044 368.766C486.658 368.766 487.161 369.263 487.161 369.883C487.161 370.497 486.658 370.994 486.044 370.994C485.424 370.994 484.927 370.497 484.927 369.883ZM440.258 369.883C440.258 369.263 440.755 368.766 441.369 368.766C441.989 368.766 442.492 369.263 442.492 369.883C442.492 370.497 441.989 370.994 441.369 370.994C440.755 370.994 440.258 370.497 440.258 369.883ZM395.589 369.883C395.589 369.263 396.086 368.766 396.706 368.766C397.32 368.766 397.823 369.263 397.823 369.883C397.823 370.497 397.32 370.994 396.706 370.994C396.086 370.994 395.589 370.497 395.589 369.883ZM350.92 369.883C350.92 369.263 351.417 368.766 352.031 368.766C352.651 368.766 353.154 369.263 353.154 369.883C353.154 370.497 352.651 370.994 352.031 370.994C351.417 370.994 350.92 370.497 350.92 369.883ZM306.251 369.883C306.251 369.263 306.748 368.766 307.368 368.766C307.982 368.766 308.484 369.263 308.484 369.883C308.484 370.497 307.982 370.994 307.368 370.994C306.748 370.994 306.251 370.497 306.251 369.883ZM261.576 369.883C261.576 369.263 262.079 368.766 262.699 368.766C263.313 368.766 263.815 369.263 263.815 369.883C263.815 370.497 263.313 370.994 262.699 370.994C262.079 370.994 261.576 370.497 261.576 369.883ZM216.913 369.883C216.913 369.263 217.41 368.766 218.03 368.766C218.644 368.766 219.141 369.263 219.141 369.883C219.141 370.497 218.644 370.994 218.03 370.994C217.41 370.994 216.913 370.497 216.913 369.883ZM172.238 369.883C172.238 369.263 172.741 368.766 173.361 368.766C173.975 368.766 174.477 369.263 174.477 369.883C174.477 370.497 173.975 370.994 173.361 370.994C172.741 370.994 172.238 370.497 172.238 369.883ZM127.575 369.883C127.575 369.263 128.072 368.766 128.692 368.766C129.306 368.766 129.803 369.263 129.803 369.883C129.803 370.497 129.306 370.994 128.692 370.994C128.072 370.994 127.575 370.497 127.575 369.883ZM82.9002 369.883C82.9002 369.263 83.4027 368.766 84.0225 368.766C84.6367 368.766 85.1392 369.263 85.1392 369.883C85.1392 370.497 84.6367 370.994 84.0225 370.994C83.4027 370.994 82.9002 370.497 82.9002 369.883ZM38.2367 369.883C38.2367 369.263 38.7336 368.766 39.3478 368.766C39.9676 368.766 40.4646 369.263 40.4646 369.883C40.4646 370.497 39.9676 370.994 39.3478 370.994C38.7336 370.994 38.2367 370.497 38.2367 369.883Z" fill="#F2F0E4"/>
<path d="M484.927 415.938C484.927 415.324 485.424 414.822 486.044 414.822C486.658 414.822 487.161 415.324 487.161 415.938C487.161 416.558 486.658 417.055 486.044 417.055C485.424 417.055 484.927 416.558 484.927 415.938ZM440.258 415.938C440.258 415.324 440.755 414.822 441.369 414.822C441.989 414.822 442.492 415.324 442.492 415.938C442.492 416.558 441.989 417.055 441.369 417.055C440.755 417.055 440.258 416.558 440.258 415.938ZM395.589 415.938C395.589 415.324 396.086 414.822 396.706 414.822C397.32 414.822 397.823 415.324 397.823 415.938C397.823 416.558 397.32 417.055 396.706 417.055C396.086 417.055 395.589 416.558 395.589 415.938ZM350.92 415.938C350.92 415.324 351.417 414.822 352.031 414.822C352.651 414.822 353.154 415.324 353.154 415.938C353.154 416.558 352.651 417.055 352.031 417.055C351.417 417.055 350.92 416.558 350.92 415.938ZM306.251 415.938C306.251 415.324 306.748 414.822 307.368 414.822C307.982 414.822 308.484 415.324 308.484 415.938C308.484 416.558 307.982 417.055 307.368 417.055C306.748 417.055 306.251 416.558 306.251 415.938ZM261.576 415.938C261.576 415.324 262.079 414.822 262.699 414.822C263.313 414.822 263.815 415.324 263.815 415.938C263.815 416.558 263.313 417.055 262.699 417.055C262.079 417.055 261.576 416.558 261.576 415.938ZM216.913 415.938C216.913 415.324 217.41 414.822 218.03 414.822C218.644 414.822 219.141 415.324 219.141 415.938C219.141 416.558 218.644 417.055 218.03 417.055C217.41 417.055 216.913 416.558 216.913 415.938ZM172.238 415.938C172.238 415.324 172.741 414.822 173.361 414.822C173.975 414.822 174.477 415.324 174.477 415.938C174.477 416.558 173.975 417.055 173.361 417.055C172.741 417.055 172.238 416.558 172.238 415.938ZM127.575 415.938C127.575 415.324 128.072 414.822 128.692 414.822C129.306 414.822 129.803 415.324 129.803 415.938C129.803 416.558 129.306 417.055 128.692 417.055C128.072 417.055 127.575 416.558 127.575 415.938ZM82.9002 415.938C82.9002 415.324 83.4027 414.822 84.0225 414.822C84.6367 414.822 85.1392 415.324 85.1392 415.938C85.1392 416.558 84.6367 417.055 84.0225 417.055C83.4027 417.055 82.9002 416.558 82.9002 415.938ZM38.2367 415.938C38.2367 415.324 38.7336 414.822 39.3478 414.822C39.9676 414.822 40.4646 415.324 40.4646 415.938C40.4646 416.558 39.9676 417.055 39.3478 417.055C38.7336 417.055 38.2367 416.558 38.2367 415.938Z" fill="#F2F0E4"/>
<path d="M526.994 460.604H39.3478V463.396H526.994V460.604Z" fill="#F2F0E4"/>
<path d="M484.927 508.062C484.927 507.442 485.424 506.945 486.044 506.945C486.658 506.945 487.161 507.442 487.161 508.062C487.161 508.676 486.658 509.178 486.044 509.178C485.424 509.178 484.927 508.676 484.927 508.062ZM440.258 508.062C440.258 507.442 440.755 506.945 441.369 506.945C441.989 506.945 442.492 507.442 442.492 508.062C442.492 508.676 441.989 509.178 441.369 509.178C440.755 509.178 440.258 508.676 440.258 508.062ZM395.589 508.062C395.589 507.442 396.086 506.945 396.706 506.945C397.32 506.945 397.823 507.442 397.823 508.062C397.823 508.676 397.32 509.178 396.706 509.178C396.086 509.178 395.589 508.676 395.589 508.062ZM350.92 508.062C350.92 507.442 351.417 506.945 352.031 506.945C352.651 506.945 353.154 507.442 353.154 508.062C353.154 508.676 352.651 509.178 352.031 509.178C351.417 509.178 350.92 508.676 350.92 508.062ZM306.251 508.062C306.251 507.442 306.748 506.945 307.368 506.945C307.982 506.945 308.484 507.442 308.484 508.062C308.484 508.676 307.982 509.178 307.368 509.178C306.748 509.178 306.251 508.676 306.251 508.062ZM261.576 508.062C261.576 507.442 262.079 506.945 262.699 506.945C263.313 506.945 263.815 507.442 263.815 508.062C263.815 508.676 263.313 509.178 262.699 509.178C262.079 509.178 261.576 508.676 261.576 508.062ZM216.913 508.062C216.913 507.442 217.41 506.945 218.03 506.945C218.644 506.945 219.141 507.442 219.141 508.062C219.141 508.676 218.644 509.178 218.03 509.178C217.41 509.178 216.913 508.676 216.913 508.062ZM172.238 508.062C172.238 507.442 172.741 506.945 173.361 506.945C173.975 506.945 174.477 507.442 174.477 508.062C174.477 508.676 173.975 509.178 173.361 509.178C172.741 509.178 172.238 508.676 172.238 508.062ZM127.575 508.062C127.575 507.442 128.072 506.945 128.692 506.945C129.306 506.945 129.803 507.442 129.803 508.062C129.803 508.676 129.306 509.178 128.692 509.178C128.072 509.178 127.575 508.676 127.575 508.062ZM82.9002 508.062C82.9002 507.442 83.4027 506.945 84.0225 506.945C84.6367 506.945 85.1392 507.442 85.1392 508.062C85.1392 508.676 84.6367 509.178 84.0225 509.178C83.4027 509.178 82.9002 508.676 82.9002 508.062ZM38.2367 508.062C38.2367 507.442 38.7336 506.945 39.3478 506.945C39.9676 506.945 40.4646 507.442 40.4646 508.062C40.4646 508.676 39.9676 509.178 39.3478 509.178C38.7336 509.178 38.2367 508.676 38.2367 508.062Z" fill="#F2F0E4"/>
<path d="M484.927 554.123C484.927 553.503 485.424 553.006 486.044 553.006C486.658 553.006 487.161 553.503 487.161 554.123C487.161 554.737 486.658 555.24 486.044 555.24C485.424 555.24 484.927 554.737 484.927 554.123ZM440.258 554.123C440.258 553.503 440.755 553.006 441.369 553.006C441.989 553.006 442.492 553.503 442.492 554.123C442.492 554.737 441.989 555.24 441.369 555.24C440.755 555.24 440.258 554.737 440.258 554.123ZM395.589 554.123C395.589 553.503 396.086 553.006 396.706 553.006C397.32 553.006 397.823 553.503 397.823 554.123C397.823 554.737 397.32 555.24 396.706 555.24C396.086 555.24 395.589 554.737 395.589 554.123ZM350.92 554.123C350.92 553.503 351.417 553.006 352.031 553.006C352.651 553.006 353.154 553.503 353.154 554.123C353.154 554.737 352.651 555.24 352.031 555.24C351.417 555.24 350.92 554.737 350.92 554.123ZM306.251 554.123C306.251 553.503 306.748 553.006 307.368 553.006C307.982 553.006 308.484 553.503 308.484 554.123C308.484 554.737 307.982 555.24 307.368 555.24C306.748 555.24 306.251 554.737 306.251 554.123ZM261.576 554.123C261.576 553.503 262.079 553.006 262.699 553.006C263.313 553.006 263.815 553.503 263.815 554.123C263.815 554.737 263.313 555.24 262.699 555.24C262.079 555.24 261.576 554.737 261.576 554.123ZM216.913 554.123C216.913 553.503 217.41 553.006 218.03 553.006C218.644 553.006 219.141 553.503 219.141 554.123C219.141 554.737 218.644 555.24 218.03 555.24C217.41 555.24 216.913 554.737 216.913 554.123ZM172.238 554.123C172.238 553.503 172.741 553.006 173.361 553.006C173.975 553.006 174.477 553.503 174.477 554.123C174.477 554.737 173.975 555.24 173.361 555.24C172.741 555.24 172.238 554.737 172.238 554.123ZM127.575 554.123C127.575 553.503 128.072 553.006 128.692 553.006C129.306 553.006 129.803 553.503 129.803 554.123C129.803 554.737 129.306 555.24 128.692 555.24C128.072 555.24 127.575 554.737 127.575 554.123ZM82.9002 554.123C82.9002 553.503 83.4027 553.006 84.0225 553.006C84.6367 553.006 85.1392 553.503 85.1392 554.123C85.1392 554.737 84.6367 555.24 84.0225 555.24C83.4027 555.24 82.9002 554.737 82.9002 554.123ZM38.2367 554.123C38.2367 553.503 38.7336 553.006 39.3478 553.006C39.9676 553.006 40.4646 553.503 40.4646 554.123C40.4646 554.737 39.9676 555.24 39.3478 555.24C38.7336 555.24 38.2367 554.737 38.2367 554.123Z" fill="#F2F0E4"/>
<path d="M484.927 600.179C484.927 599.565 485.424 599.062 486.044 599.062C486.658 599.062 487.161 599.565 487.161 600.179C487.161 600.799 486.658 601.296 486.044 601.296C485.424 601.296 484.927 600.799 484.927 600.179ZM440.258 600.179C440.258 599.565 440.755 599.062 441.369 599.062C441.989 599.062 442.492 599.565 442.492 600.179C442.492 600.799 441.989 601.296 441.369 601.296C440.755 601.296 440.258 600.799 440.258 600.179ZM395.589 600.179C395.589 599.565 396.086 599.062 396.706 599.062C397.32 599.062 397.823 599.565 397.823 600.179C397.823 600.799 397.32 601.296 396.706 601.296C396.086 601.296 395.589 600.799 395.589 600.179ZM350.92 600.179C350.92 599.565 351.417 599.062 352.031 599.062C352.651 599.062 353.154 599.565 353.154 600.179C353.154 600.799 352.651 601.296 352.031 601.296C351.417 601.296 350.92 600.799 350.92 600.179ZM306.251 600.179C306.251 599.565 306.748 599.062 307.368 599.062C307.982 599.062 308.484 599.565 308.484 600.179C308.484 600.799 307.982 601.296 307.368 601.296C306.748 601.296 306.251 600.799 306.251 600.179ZM261.576 600.179C261.576 599.565 262.079 599.062 262.699 599.062C263.313 599.062 263.815 599.565 263.815 600.179C263.815 600.799 263.313 601.296 262.699 601.296C262.079 601.296 261.576 600.799 261.576 600.179ZM216.913 600.179C216.913 599.565 217.41 599.062 218.03 599.062C218.644 599.062 219.141 599.565 219.141 600.179C219.141 600.799 218.644 601.296 218.03 601.296C217.41 601.296 216.913 600.799 216.913 600.179ZM172.238 600.179C172.238 599.565 172.741 599.062 173.361 599.062C173.975 599.062 174.477 599.565 174.477 600.179C174.477 600.799 173.975 601.296 173.361 601.296C172.741 601.296 172.238 600.799 172.238 600.179ZM127.575 600.179C127.575 599.565 128.072 599.062 128.692 599.062C129.306 599.062 129.803 599.565 129.803 600.179C129.803 600.799 129.306 601.296 128.692 601.296C128.072 601.296 127.575 600.799 127.575 600.179ZM82.9002 600.179C82.9002 599.565 83.4027 599.062 84.0225 599.062C84.6367 599.062 85.1392 599.565 85.1392 600.179C85.1392 600.799 84.6367 601.296 84.0225 601.296C83.4027 601.296 82.9002 600.799 82.9002 600.179ZM38.2367 600.179C38.2367 599.565 38.7336 599.062 39.3478 599.062C39.9676 599.062 40.4646 599.565 40.4646 600.179C40.4646 600.799 39.9676 601.296 39.3478 601.296C38.7336 601.296 38.2367 600.799 38.2367 600.179Z" fill="#F2F0E4"/>
<path d="M484.927 646.241C484.927 645.626 485.424 645.124 486.044 645.124C486.658 645.124 487.161 645.626 487.161 646.241C487.161 646.86 486.658 647.357 486.044 647.357C485.424 647.357 484.927 646.86 484.927 646.241ZM440.258 646.241C440.258 645.626 440.755 645.124 441.369 645.124C441.989 645.124 442.492 645.626 442.492 646.241C442.492 646.86 441.989 647.357 441.369 647.357C440.755 647.357 440.258 646.86 440.258 646.241ZM395.589 646.241C395.589 645.626 396.086 645.124 396.706 645.124C397.32 645.124 397.823 645.626 397.823 646.241C397.823 646.86 397.32 647.357 396.706 647.357C396.086 647.357 395.589 646.86 395.589 646.241ZM350.92 646.241C350.92 645.626 351.417 645.124 352.031 645.124C352.651 645.124 353.154 645.626 353.154 646.241C353.154 646.86 352.651 647.357 352.031 647.357C351.417 647.357 350.92 646.86 350.92 646.241ZM306.251 646.241C306.251 645.626 306.748 645.124 307.368 645.124C307.982 645.124 308.484 645.626 308.484 646.241C308.484 646.86 307.982 647.357 307.368 647.357C306.748 647.357 306.251 646.86 306.251 646.241ZM261.576 646.241C261.576 645.626 262.079 645.124 262.699 645.124C263.313 645.124 263.815 645.626 263.815 646.241C263.815 646.86 263.313 647.357 262.699 647.357C262.079 647.357 261.576 646.86 261.576 646.241ZM216.913 646.241C216.913 645.626 217.41 645.124 218.03 645.124C218.644 645.124 219.141 645.626 219.141 646.241C219.141 646.86 218.644 647.357 218.03 647.357C217.41 647.357 216.913 646.86 216.913 646.241ZM172.238 646.241C172.238 645.626 172.741 645.124 173.361 645.124C173.975 645.124 174.477 645.626 174.477 646.241C174.477 646.86 173.975 647.357 173.361 647.357C172.741 647.357 172.238 646.86 172.238 646.241ZM127.575 646.241C127.575 645.626 128.072 645.124 128.692 645.124C129.306 645.124 129.803 645.626 129.803 646.241C129.803 646.86 129.306 647.357 128.692 647.357C128.072 647.357 127.575 646.86 127.575 646.241ZM82.9002 646.241C82.9002 645.626 83.4027 645.124 84.0225 645.124C84.6367 645.124 85.1392 645.626 85.1392 646.241C85.1392 646.86 84.6367 647.357 84.0225 647.357C83.4027 647.357 82.9002 646.86 82.9002 646.241ZM38.2367 646.241C38.2367 645.626 38.7336 645.124 39.3478 645.124C39.9676 645.124 40.4646 645.626 40.4646 646.241C40.4646 646.86 39.9676 647.357 39.3478 647.357C38.7336 647.357 38.2367 646.86 38.2367 646.241Z" fill="#F2F0E4"/>
<path d="M484.927 692.302C484.927 691.688 485.424 691.185 486.044 691.185C486.658 691.185 487.161 691.688 487.161 692.302C487.161 692.916 486.658 693.419 486.044 693.419C485.424 693.419 484.927 692.916 484.927 692.302ZM440.258 692.302C440.258 691.688 440.755 691.185 441.369 691.185C441.989 691.185 442.492 691.688 442.492 692.302C442.492 692.916 441.989 693.419 441.369 693.419C440.755 693.419 440.258 692.916 440.258 692.302ZM395.589 692.302C395.589 691.688 396.086 691.185 396.706 691.185C397.32 691.185 397.823 691.688 397.823 692.302C397.823 692.916 397.32 693.419 396.706 693.419C396.086 693.419 395.589 692.916 395.589 692.302ZM350.92 692.302C350.92 691.688 351.417 691.185 352.031 691.185C352.651 691.185 353.154 691.688 353.154 692.302C353.154 692.916 352.651 693.419 352.031 693.419C351.417 693.419 350.92 692.916 350.92 692.302ZM306.251 692.302C306.251 691.688 306.748 691.185 307.368 691.185C307.982 691.185 308.484 691.688 308.484 692.302C308.484 692.916 307.982 693.419 307.368 693.419C306.748 693.419 306.251 692.916 306.251 692.302ZM261.576 692.302C261.576 691.688 262.079 691.185 262.699 691.185C263.313 691.185 263.815 691.688 263.815 692.302C263.815 692.916 263.313 693.419 262.699 693.419C262.079 693.419 261.576 692.916 261.576 692.302ZM216.913 692.302C216.913 691.688 217.41 691.185 218.03 691.185C218.644 691.185 219.141 691.688 219.141 692.302C219.141 692.916 218.644 693.419 218.03 693.419C217.41 693.419 216.913 692.916 216.913 692.302ZM172.238 692.302C172.238 691.688 172.741 691.185 173.361 691.185C173.975 691.185 174.477 691.688 174.477 692.302C174.477 692.916 173.975 693.419 173.361 693.419C172.741 693.419 172.238 692.916 172.238 692.302ZM127.575 692.302C127.575 691.688 128.072 691.185 128.692 691.185C129.306 691.185 129.803 691.688 129.803 692.302C129.803 692.916 129.306 693.419 128.692 693.419C128.072 693.419 127.575 692.916 127.575 692.302ZM82.9002 692.302C82.9002 691.688 83.4027 691.185 84.0225 691.185C84.6367 691.185 85.1392 691.688 85.1392 692.302C85.1392 692.916 84.6367 693.419 84.0225 693.419C83.4027 693.419 82.9002 692.916 82.9002 692.302ZM38.2367 692.302C38.2367 691.688 38.7336 691.185 39.3478 691.185C39.9676 691.185 40.4646 691.688 40.4646 692.302C40.4646 692.916 39.9676 693.419 39.3478 693.419C38.7336 693.419 38.2367 692.916 38.2367 692.302Z" fill="#F2F0E4"/>
<path d="M484.927 738.364C484.927 737.744 485.424 737.247 486.044 737.247C486.658 737.247 487.161 737.744 487.161 738.364C487.161 738.978 486.658 739.48 486.044 739.48C485.424 739.48 484.927 738.978 484.927 738.364ZM440.258 738.364C440.258 737.744 440.755 737.247 441.369 737.247C441.989 737.247 442.492 737.744 442.492 738.364C442.492 738.978 441.989 739.48 441.369 739.48C440.755 739.48 440.258 738.978 440.258 738.364ZM395.589 738.364C395.589 737.744 396.086 737.247 396.706 737.247C397.32 737.247 397.823 737.744 397.823 738.364C397.823 738.978 397.32 739.48 396.706 739.48C396.086 739.48 395.589 738.978 395.589 738.364ZM350.92 738.364C350.92 737.744 351.417 737.247 352.031 737.247C352.651 737.247 353.154 737.744 353.154 738.364C353.154 738.978 352.651 739.48 352.031 739.48C351.417 739.48 350.92 738.978 350.92 738.364ZM306.251 738.364C306.251 737.744 306.748 737.247 307.368 737.247C307.982 737.247 308.484 737.744 308.484 738.364C308.484 738.978 307.982 739.48 307.368 739.48C306.748 739.48 306.251 738.978 306.251 738.364ZM261.576 738.364C261.576 737.744 262.079 737.247 262.699 737.247C263.313 737.247 263.815 737.744 263.815 738.364C263.815 738.978 263.313 739.48 262.699 739.48C262.079 739.48 261.576 738.978 261.576 738.364ZM216.913 738.364C216.913 737.744 217.41 737.247 218.03 737.247C218.644 737.247 219.141 737.744 219.141 738.364C219.141 738.978 218.644 739.48 218.03 739.48C217.41 739.48 216.913 738.978 216.913 738.364ZM172.238 738.364C172.238 737.744 172.741 737.247 173.361 737.247C173.975 737.247 174.477 737.744 174.477 738.364C174.477 738.978 173.975 739.48 173.361 739.48C172.741 739.48 172.238 738.978 172.238 738.364ZM127.575 738.364C127.575 737.744 128.072 737.247 128.692 737.247C129.306 737.247 129.803 737.744 129.803 738.364C129.803 738.978 129.306 739.48 128.692 739.48C128.072 739.48 127.575 738.978 127.575 738.364ZM82.9002 738.364C82.9002 737.744 83.4027 737.247 84.0225 737.247C84.6367 737.247 85.1392 737.744 85.1392 738.364C85.1392 738.978 84.6367 739.48 84.0225 739.48C83.4027 739.48 82.9002 738.978 82.9002 738.364ZM38.2367 738.364C38.2367 737.744 38.7336 737.247 39.3478 737.247C39.9676 737.247 40.4646 737.744 40.4646 738.364C40.4646 738.978 39.9676 739.48 39.3478 739.48C38.7336 739.48 38.2367 738.978 38.2367 738.364Z" fill="#F2F0E4"/>
<path d="M484.927 784.42C484.927 783.805 485.424 783.309 486.044 783.309C486.658 783.309 487.161 783.805 487.161 784.42C487.161 785.039 486.658 785.536 486.044 785.536C485.424 785.536 484.927 785.039 484.927 784.42ZM440.258 784.42C440.258 783.805 440.755 783.309 441.369 783.309C441.989 783.309 442.492 783.805 442.492 784.42C442.492 785.039 441.989 785.536 441.369 785.536C440.755 785.536 440.258 785.039 440.258 784.42ZM395.589 784.42C395.589 783.805 396.086 783.309 396.706 783.309C397.32 783.309 397.823 783.805 397.823 784.42C397.823 785.039 397.32 785.536 396.706 785.536C396.086 785.536 395.589 785.039 395.589 784.42ZM350.92 784.42C350.92 783.805 351.417 783.309 352.031 783.309C352.651 783.309 353.154 783.805 353.154 784.42C353.154 785.039 352.651 785.536 352.031 785.536C351.417 785.536 350.92 785.039 350.92 784.42ZM306.251 784.42C306.251 783.805 306.748 783.309 307.368 783.309C307.982 783.309 308.484 783.805 308.484 784.42C308.484 785.039 307.982 785.536 307.368 785.536C306.748 785.536 306.251 785.039 306.251 784.42ZM261.576 784.42C261.576 783.805 262.079 783.309 262.699 783.309C263.313 783.309 263.815 783.805 263.815 784.42C263.815 785.039 263.313 785.536 262.699 785.536C262.079 785.536 261.576 785.039 261.576 784.42ZM216.913 784.42C216.913 783.805 217.41 783.309 218.03 783.309C218.644 783.309 219.141 783.805 219.141 784.42C219.141 785.039 218.644 785.536 218.03 785.536C217.41 785.536 216.913 785.039 216.913 784.42ZM172.238 784.42C172.238 783.805 172.741 783.309 173.361 783.309C173.975 783.309 174.477 783.805 174.477 784.42C174.477 785.039 173.975 785.536 173.361 785.536C172.741 785.536 172.238 785.039 172.238 784.42ZM127.575 784.42C127.575 783.805 128.072 783.309 128.692 783.309C129.306 783.309 129.803 783.805 129.803 784.42C129.803 785.039 129.306 785.536 128.692 785.536C128.072 785.536 127.575 785.039 127.575 784.42ZM82.9002 784.42C82.9002 783.805 83.4027 783.309 84.0225 783.309C84.6367 783.309 85.1392 783.805 85.1392 784.42C85.1392 785.039 84.6367 785.536 84.0225 785.536C83.4027 785.536 82.9002 785.039 82.9002 784.42ZM38.2367 784.42C38.2367 783.805 38.7336 783.309 39.3478 783.309C39.9676 783.309 40.4646 783.805 40.4646 784.42C40.4646 785.039 39.9676 785.536 39.3478 785.536C38.7336 785.536 38.2367 785.039 38.2367 784.42Z" fill="#F2F0E4"/>
<path d="M484.927 830.481C484.927 829.867 485.424 829.365 486.044 829.365C486.658 829.365 487.161 829.867 487.161 830.481C487.161 831.101 486.658 831.598 486.044 831.598C485.424 831.598 484.927 831.101 484.927 830.481ZM440.258 830.481C440.258 829.867 440.755 829.365 441.369 829.365C441.989 829.365 442.492 829.867 442.492 830.481C442.492 831.101 441.989 831.598 441.369 831.598C440.755 831.598 440.258 831.101 440.258 830.481ZM395.589 830.481C395.589 829.867 396.086 829.365 396.706 829.365C397.32 829.365 397.823 829.867 397.823 830.481C397.823 831.101 397.32 831.598 396.706 831.598C396.086 831.598 395.589 831.101 395.589 830.481ZM350.92 830.481C350.92 829.867 351.417 829.365 352.031 829.365C352.651 829.365 353.154 829.867 353.154 830.481C353.154 831.101 352.651 831.598 352.031 831.598C351.417 831.598 350.92 831.101 350.92 830.481ZM306.251 830.481C306.251 829.867 306.748 829.365 307.368 829.365C307.982 829.365 308.484 829.867 308.484 830.481C308.484 831.101 307.982 831.598 307.368 831.598C306.748 831.598 306.251 831.101 306.251 830.481ZM261.576 830.481C261.576 829.867 262.079 829.365 262.699 829.365C263.313 829.365 263.815 829.867 263.815 830.481C263.815 831.101 263.313 831.598 262.699 831.598C262.079 831.598 261.576 831.101 261.576 830.481ZM216.913 830.481C216.913 829.867 217.41 829.365 218.03 829.365C218.644 829.365 219.141 829.867 219.141 830.481C219.141 831.101 218.644 831.598 218.03 831.598C217.41 831.598 216.913 831.101 216.913 830.481ZM172.238 830.481C172.238 829.867 172.741 829.365 173.361 829.365C173.975 829.365 174.477 829.867 174.477 830.481C174.477 831.101 173.975 831.598 173.361 831.598C172.741 831.598 172.238 831.101 172.238 830.481ZM127.575 830.481C127.575 829.867 128.072 829.365 128.692 829.365C129.306 829.365 129.803 829.867 129.803 830.481C129.803 831.101 129.306 831.598 128.692 831.598C128.072 831.598 127.575 831.101 127.575 830.481ZM82.9002 830.481C82.9002 829.867 83.4027 829.365 84.0225 829.365C84.6367 829.365 85.1392 829.867 85.1392 830.481C85.1392 831.101 84.6367 831.598 84.0225 831.598C83.4027 831.598 82.9002 831.101 82.9002 830.481ZM38.2367 830.481C38.2367 829.867 38.7336 829.365 39.3478 829.365C39.9676 829.365 40.4646 829.867 40.4646 830.481C40.4646 831.101 39.9676 831.598 39.3478 831.598C38.7336 831.598 38.2367 831.101 38.2367 830.481Z" fill="#F2F0E4"/>
<path d="M484.927 876.543C484.927 875.929 485.424 875.426 486.044 875.426C486.658 875.426 487.161 875.929 487.161 876.543C487.161 877.162 486.658 877.659 486.044 877.659C485.424 877.659 484.927 877.162 484.927 876.543ZM440.258 876.543C440.258 875.929 440.755 875.426 441.369 875.426C441.989 875.426 442.492 875.929 442.492 876.543C442.492 877.162 441.989 877.659 441.369 877.659C440.755 877.659 440.258 877.162 440.258 876.543ZM395.589 876.543C395.589 875.929 396.086 875.426 396.706 875.426C397.32 875.426 397.823 875.929 397.823 876.543C397.823 877.162 397.32 877.659 396.706 877.659C396.086 877.659 395.589 877.162 395.589 876.543ZM350.92 876.543C350.92 875.929 351.417 875.426 352.031 875.426C352.651 875.426 353.154 875.929 353.154 876.543C353.154 877.162 352.651 877.659 352.031 877.659C351.417 877.659 350.92 877.162 350.92 876.543ZM306.251 876.543C306.251 875.929 306.748 875.426 307.368 875.426C307.982 875.426 308.484 875.929 308.484 876.543C308.484 877.162 307.982 877.659 307.368 877.659C306.748 877.659 306.251 877.162 306.251 876.543ZM261.576 876.543C261.576 875.929 262.079 875.426 262.699 875.426C263.313 875.426 263.815 875.929 263.815 876.543C263.815 877.162 263.313 877.659 262.699 877.659C262.079 877.659 261.576 877.162 261.576 876.543ZM216.913 876.543C216.913 875.929 217.41 875.426 218.03 875.426C218.644 875.426 219.141 875.929 219.141 876.543C219.141 877.162 218.644 877.659 218.03 877.659C217.41 877.659 216.913 877.162 216.913 876.543ZM172.238 876.543C172.238 875.929 172.741 875.426 173.361 875.426C173.975 875.426 174.477 875.929 174.477 876.543C174.477 877.162 173.975 877.659 173.361 877.659C172.741 877.659 172.238 877.162 172.238 876.543ZM127.575 876.543C127.575 875.929 128.072 875.426 128.692 875.426C129.306 875.426 129.803 875.929 129.803 876.543C129.803 877.162 129.306 877.659 128.692 877.659C128.072 877.659 127.575 877.162 127.575 876.543ZM82.9002 876.543C82.9002 875.929 83.4027 875.426 84.0225 875.426C84.6367 875.426 85.1392 875.929 85.1392 876.543C85.1392 877.162 84.6367 877.659 84.0225 877.659C83.4027 877.659 82.9002 877.162 82.9002 876.543ZM38.2367 876.543C38.2367 875.929 38.7336 875.426 39.3478 875.426C39.9676 875.426 40.4646 875.929 40.4646 876.543C40.4646 877.162 39.9676 877.659 39.3478 877.659C38.7336 877.659 38.2367 877.162 38.2367 876.543Z" fill="#F2F0E4"/>
<path d="M526.994 921.208H39.3478V924H526.994V921.208Z" fill="#F2F0E4"/>
</g>
<defs>
<clipPath id="clip0_187_52">
<rect width="527" height="924" fill="white"/>
</clipPath>
</defs>
</svg>
