<svg width="343" height="885" viewBox="0 0 343 885" fill="none" xmlns="http://www.w3.org/2000/svg">
<path fill-rule="evenodd" clip-rule="evenodd" d="M342.479 467.076C341.074 464.704 339.767 462.277 338.335 459.905C336.422 456.757 335.421 453.291 334.64 449.722C333.667 445.257 332.611 440.808 331.567 436.359C330.715 432.696 328.971 429.603 326.423 426.733C322.859 422.721 319.776 418.289 316.584 413.96C315.966 413.14 315.622 412.008 315.49 410.981C315.206 408.855 315.19 406.685 314.987 404.548C314.408 398.863 313.637 393.184 313.227 387.495C312.549 377.902 312.128 368.288 311.538 358.684C311.052 350.907 310.62 343.118 309.936 335.346C308.865 323.173 306.443 311.269 301.687 299.922C301.354 299.108 301.294 298.102 301.365 297.2C301.551 294.926 302.015 292.669 302.13 290.395C302.496 283.322 302.24 276.239 301.239 269.248C299.014 253.845 294.947 238.607 290.241 223.817C289.836 222.499 289.552 221.051 289.59 219.684C289.672 217.487 290.148 215.306 290.323 213.109C290.503 210.71 290.361 208.266 290.678 205.889C291.4 200.5 291.208 195.138 290.273 189.814C288.765 181.151 284.856 171.662 279.756 163.048C274.836 154.718 268.511 150.012 261.487 145.448C258.196 143.328 254.752 141.835 250.975 140.802C247.126 139.758 243.081 139.737 239.32 138.048C237.707 137.321 235.953 136.916 234.373 136.08C227.78 132.609 221.297 128.909 214.661 125.515C209.828 123.039 204.854 120.912 199.89 118.797C198.146 118.048 197.982 118.212 197.813 116.447C196.845 106.346 198.966 95.7207 198.966 95.3873C198.966 95.3217 198.934 95.278 198.923 95.2178C199.005 95.1031 199.098 94.9883 199.18 94.868C200.568 92.638 201.629 90.2932 202.006 87.6696C202.274 85.8277 202.552 83.9911 202.82 82.1492C204.897 82.4498 206.953 82.2749 207.981 80.7991C208.751 79.6841 209.008 78.4161 209.642 77.1917C210.287 75.9237 211.424 74.918 212.326 73.8467C214.229 71.5675 214.672 68.3481 214.71 65.3146C214.732 62.5817 215.224 56.0993 211.61 55.3888C210.829 55.2412 209.801 55.8698 208.872 56.6131C208.877 56.5748 208.883 56.5311 208.893 56.4874C209.238 53.7873 209.189 51.049 209.834 48.3653C212.157 38.7455 210.703 29.2405 206.483 21.2441C201.022 10.9302 190.909 3.13053 178.265 0.845838C148.155 -4.5926 122.976 16.7895 126.666 47.8733C126.989 50.5898 127.913 53.1861 128.705 55.8096C128.837 56.1376 128.968 56.4655 129.099 56.7935C128.115 55.9736 126.989 55.2248 126.147 55.3888C122.528 56.0993 123.02 62.5817 123.047 65.3146C123.075 68.3481 123.529 71.5675 125.425 73.8467C126.327 74.9234 127.459 75.9237 128.109 77.1917C128.749 78.4106 129.006 79.6787 129.777 80.7991C131.018 82.5919 133.778 82.4771 136.249 81.9087C136.435 82.827 136.522 83.7561 136.566 84.6853C136.752 87.921 137.501 90.9819 139.234 93.7312C139.977 94.8954 140.775 96.0268 141.557 97.1637C142.005 102.252 142.978 112.594 143.219 114.714C143.53 117.491 142.328 118.376 139.633 119.655C139.381 119.765 139.124 119.874 138.878 119.994C134.467 122.159 129.995 124.263 125.644 126.624C119.702 129.854 113.853 133.309 107.944 136.714C104.953 138.436 101.925 140.037 98.5903 140.617C97.1964 140.857 95.7641 140.999 94.3975 141.415C91.4073 142.338 88.1766 142.847 85.5308 144.388C76.533 149.646 68.612 154.789 62.6316 165.54C55.5416 178.265 50.3101 192.94 52.4147 207.676C52.4585 208.064 52.4421 208.48 52.3983 208.884C52.1688 211.519 52.6006 214.087 53.0871 216.667C53.5846 219.247 53.8415 221.893 53.0161 224.445C48.7467 237.787 44.9858 251.446 42.6242 265.269C40.7602 276.162 39.9511 287.159 41.6403 298.195C41.848 299.534 41.6129 300.693 41.1264 301.895C38.6938 307.825 36.7969 313.92 35.5123 320.189C33.0305 332.296 32.1777 344.561 31.5436 356.864C31.2484 362.505 31.1336 368.157 30.7728 373.792C30.3246 380.772 29.7178 387.746 29.1329 394.715C28.7557 399.273 28.0943 403.815 27.9193 408.368C27.7881 411.921 27.0666 415.069 24.7269 417.873C21.5782 421.628 18.6809 425.607 15.5377 429.368C14.2203 430.953 12.9684 432.5 12.46 434.489C11.0825 439.895 9.71586 445.29 8.44217 450.733C7.73699 453.74 7.12474 456.79 5.62145 459.539C3.9815 462.545 2.25955 465.507 0.526665 468.459C-0.517438 470.224 -0.00358621 471.607 2.01902 472.061C5.14586 472.733 8.22897 472.75 10.7818 470.449C12.3617 469.017 13.8376 467.453 15.33 465.912C15.8056 465.404 16.1937 464.797 16.6201 464.234C16.7458 464.289 16.8825 464.349 17.0136 464.414C16.9535 465.119 16.9207 465.819 16.8442 466.535C16.2319 472.006 15.5432 477.483 14.9965 482.96C14.5209 487.715 14.1656 492.47 13.8212 497.236C13.6791 499.1 13.7173 500.991 13.7501 502.871C13.7611 503.757 14.3405 504.353 15.166 504.653C15.9367 504.916 16.3522 504.369 16.8551 503.894C19.8344 501.112 21.2721 497.51 22.2451 493.711C24.0053 486.813 25.6179 479.861 27.318 472.941C27.4328 472.504 27.7225 472.099 27.9248 471.684C28.3512 472.154 28.4332 472.526 28.4222 472.881C28.3621 474.635 28.2801 476.39 28.1872 478.128C27.9685 482.495 27.7335 486.862 27.5312 491.224C27.2743 496.526 27.2087 501.828 27.9357 507.113C28.4277 507.315 28.9033 507.419 29.2805 507.659C30.3847 508.359 31.3796 508.14 32.1613 507.228C32.6533 506.637 33.0633 505.921 33.2929 505.189C35.1898 499.477 35.8786 493.52 36.9172 487.622C37.4802 484.321 37.8684 480.965 38.3276 477.647C38.5353 478.161 38.6556 478.691 38.6665 479.216C38.7157 485.064 38.6938 490.912 38.8086 496.783C38.8469 498.849 39.1475 500.915 39.4427 502.97C39.6341 504.276 40.4978 504.981 41.7113 505.14C42.5641 505.255 43.7886 504.473 44.215 503.434C44.45 502.888 44.5266 502.27 44.6195 501.691C45.0568 498.881 45.4613 496.067 45.9424 492.814C46.7733 494.859 47.391 496.482 48.0743 498.073C49.02 500.292 49.0419 500.275 51.469 499.92C51.7205 499.882 51.9665 499.871 52.3929 499.838C52.617 498.756 52.9997 497.717 53.0161 496.679C53.0707 493.782 52.9341 490.891 52.9177 487.999C52.863 481.052 52.0977 474.1 53.8087 467.153C54.7872 463.217 54.5904 459.014 54.8856 454.926C54.984 453.581 54.8419 452.226 54.9676 450.887C55.4869 445.541 55.8477 440.185 55.6181 434.795C55.4049 429.663 55.0223 424.552 53.4315 419.666C52.8302 417.846 52.9231 416.343 53.5463 414.659C55.8586 408.417 58.3678 402.23 60.3685 395.884C65.0916 380.881 69.6397 365.801 74.1769 350.748C77.0195 341.292 78.8398 331.678 78.479 321.73C78.3861 319.205 78.7742 316.647 78.8453 314.095C78.9273 311.007 78.9874 307.924 78.8945 304.83C78.8344 302.955 79.0968 301.288 80.0479 299.627C82.8304 294.779 84.8967 289.581 86.8155 284.334C88.8545 278.769 90.4616 273.074 91.8119 267.319C91.9758 266.592 92.0141 265.772 92.8068 265.132C93.7853 267.351 94.72 269.412 95.6111 271.511C95.7805 271.926 95.7696 272.429 95.8243 272.899C96.6716 280.912 97.4806 288.947 98.3389 296.97C98.8199 301.447 99.5798 305.901 99.8421 310.389C100.126 315.494 99.9569 320.615 100.055 325.731C100.187 332.055 100.312 338.374 100.624 344.687C100.761 347.146 101.362 349.589 101.859 352.022C102.215 353.814 102.472 355.536 101.81 357.362C101.138 359.187 100.684 361.106 100.274 362.997C98.5575 371.064 97.2237 379.137 99.208 387.369C99.3994 388.189 99.3611 389.134 99.1971 389.97C99.1424 390.271 99.0768 390.572 99.0222 390.867C96.4474 394.972 93.7634 399.317 91.7189 403.619C88.2696 410.877 86.4929 420.787 85.2356 428.685C83.9948 436.479 83.1529 444.213 81.2943 451.952C77.5661 467.508 75.3085 484.512 74.5377 500.499C74.2589 506.255 73.9582 512.054 73.6248 517.826C73.4991 520.001 72.9305 522.581 73.6193 524.636C75.0242 528.845 79.8566 530.747 84.3938 532.119C84.7601 534.671 85.2794 537.224 85.5418 539.787C86.5968 550.227 88.5593 560.541 89.4558 570.991C90.0516 578.004 90.3632 584.929 89.1442 591.893C87.4715 601.387 86.9139 610.984 87.2692 620.615C87.3457 622.665 87.0997 624.572 86.3836 626.518C83.2841 635.039 81.6332 644.02 80.7914 652.896C77.5825 686.647 78.4462 720.294 80.7203 754.401C80.7203 754.401 81.7863 780.91 81.7863 786.917C81.7863 792.924 79.9331 801.598 77.1671 807.282C69.3336 823.395 55.8914 838.153 44.3188 852.419C38.3112 859.836 37.4256 858.682 34.4791 861.027C31.7349 863.203 31.3578 864.356 29.8053 866.81C28.3293 869.155 29.1876 870.86 29.1876 870.86C27.4273 875.632 30.74 876.244 30.74 876.244C32.8665 880.135 36.4034 878.9 36.4034 878.9C41.3505 883.847 44.3079 879.895 44.3079 879.895C49.9658 886.432 55.7985 885.016 62.5168 879.195C69.2352 873.358 68.6065 875.845 72.2472 874.413C87.8924 868.286 88.6303 852.85 102.127 845.247C117.034 836.863 120.855 827.757 119.095 821.93C117.335 816.099 116.269 807.78 116.269 807.78C117.86 806.719 118.385 803.363 117.504 800.013C114.678 789.273 115.733 787.983 117.909 765.792C121.162 745.59 123.917 722.65 133.499 705.171C136.927 698.923 139.185 691.692 140.005 684.302C140.606 678.798 140.568 673.3 140.409 667.779C140.212 660.974 139.452 654.235 138.474 647.512C137.747 642.517 137.025 637.526 136.287 632.547C136.129 631.443 136.265 630.47 136.938 629.497C138.807 626.737 140.005 623.671 140.885 620.479C142.601 614.226 143.58 607.864 143.623 601.359C143.651 597.861 143.749 594.358 144.055 590.881C144.279 588.236 144.35 585.536 145.651 583.049C151.293 572.238 155.803 560.945 159.301 549.26C159.64 548.128 159.963 546.997 160.285 545.86C162.576 544.105 163.997 541.766 165.271 538.798C169.289 529.424 169.748 519.449 171.382 509.518C171.749 507.299 172.29 505.67 172.284 503.183C172.284 501.439 171.699 498.318 172.886 497.138C174.613 498.876 174.263 501.882 174.766 504.178C175.941 509.573 179.265 514.098 181.282 519.154C183.72 525.254 185.131 532.392 186.18 538.842C186.792 542.608 188.11 549.484 190.171 552.588C190.761 553.479 191.428 554.026 192.144 554.326C195.621 564.159 199.753 573.752 204.739 582.929C204.712 582.929 204.706 582.945 204.662 582.956C204.969 583.53 205.231 584.142 205.455 584.749C205.537 585.082 205.625 585.405 205.668 585.733C206.379 592.138 206.997 596.495 207.073 598.375H207.106C207.128 599.37 207.161 600.359 207.161 601.365C207.193 606.186 207.773 612.684 209.91 620.484C210.779 623.671 211.988 626.742 213.863 629.503C214.371 630.251 216.262 633.498 213.54 649.485C212.403 656.181 212.25 662.997 212.294 669.802C212.321 675.328 212.474 680.832 213.267 686.308C214.333 693.649 216.88 700.82 220.472 706.947C230.328 723.7 232.389 746.536 236.073 766.185C238.992 788.3 239.621 788.644 237.155 799.461C236.385 802.849 237.647 807.02 239.271 808.02C239.271 808.02 238.511 813.54 237.669 819.58C236.188 830.288 237.893 836.251 253.538 845.461C267.084 853.43 267.511 869.045 283.708 874.708C287.393 875.992 287.157 874.079 293.575 880.239C300.315 886.689 305.886 886.602 311.314 879.879C311.314 879.879 314.577 883.278 319.065 878.977C319.065 878.977 323.28 879.933 324.794 876.178C324.794 876.178 328.676 874.703 325.959 870.915C325.959 870.915 328.637 869.362 322.641 862.35C320.935 860.36 317.989 861.164 311.757 853.025C302.846 841.378 294.078 829.517 285.643 817.607C281.691 812.032 277.558 807.441 275.924 801.122C274.295 794.82 273.491 794.022 273.393 788.119C273.13 772.793 273.825 756.948 274.207 741.354C274.021 711.653 274.388 682.367 271.365 652.918C270.736 646.769 266.188 630.109 265.406 628.07C264.406 624.928 263.471 621.681 263.509 620.615C263.865 610.995 263.318 601.387 261.651 591.893C260.459 585.142 260.071 577.539 260.547 570.74C260.793 567.406 260.962 564.044 261.257 560.699C261.602 556.824 262.208 552.96 262.662 549.09C262.755 548.336 262.842 547.581 262.935 546.833C264.029 546.794 265.117 546.751 266.204 546.701C269.807 546.532 272.884 546.789 273.59 543.089C274.016 540.864 273.174 537.541 273.349 535.196C273.551 532.485 274.442 529.987 274.863 527.32C275.907 520.657 273.825 514.809 271.982 508.457C269.67 500.488 269.195 492.268 267.248 484.228C263.542 468.929 265.849 453.368 263.192 437.982C261.372 427.444 256.736 418.556 252.626 408.991C251.489 406.351 250.751 403.558 249.969 400.787C249.001 396.376 248.034 391.966 247.093 387.56C246.946 386.866 246.935 386.079 247.077 385.374C248.176 379.881 247.995 374.382 246.99 368.933C246.219 364.697 245.142 360.521 244.092 356.356C243.671 354.618 243.578 352.94 243.896 351.18C244.289 348.928 244.787 346.654 244.847 344.386C244.967 339.62 244.863 334.832 244.814 330.066C244.759 326.092 244.497 322.124 244.628 318.167C244.83 312.056 245.202 305.934 245.683 299.84C246.405 290.586 247.274 281.338 248.099 272.101C248.214 270.839 250.116 266.668 251.062 265.608C251.243 266.236 251.423 266.805 251.565 267.384C254.184 278.425 257.901 289.072 263.362 299.058C263.93 300.108 264.193 301.157 264.133 302.338C264.04 304.076 263.908 305.825 263.969 307.558C264.111 311.996 264.625 316.429 264.515 320.845C264.291 330.033 265.822 338.948 268.353 347.715C270.228 354.17 272.305 360.57 274.24 367.003C277.722 378.602 280.816 390.315 285.157 401.634C286.769 405.843 288.24 410.106 289.814 414.321C290.235 415.436 290.312 416.452 289.787 417.6C289.278 418.748 289 420.032 288.765 421.278C287.54 427.772 286.993 434.325 287.469 440.944C287.71 444.235 288.021 447.514 288.092 450.81C288.24 457.26 288.234 463.709 290.18 469.962C290.251 470.214 290.279 470.498 290.279 470.76C290.279 475.734 290.284 480.724 290.224 485.709C290.197 488.792 289.967 491.885 289.984 494.973C289.984 496.132 290.377 497.302 290.59 498.395C291.312 498.504 291.766 498.548 292.214 498.63C293.854 498.914 293.952 498.871 294.652 497.335C295.15 496.225 295.625 495.116 296.084 494.001C296.352 493.312 296.587 492.607 296.839 491.924C297.582 494.826 297.987 497.613 298.408 500.406C298.49 500.926 298.572 501.472 298.763 501.97C299.178 502.97 300.447 503.883 301.206 503.806C302.349 503.68 303.398 502.779 303.601 501.489C303.89 499.647 304.213 497.777 304.251 495.897C304.35 489.923 304.3 483.911 304.35 477.937C304.355 477.412 304.481 476.876 304.579 476.089C305.427 481.522 306.121 486.649 307.056 491.732C307.804 495.826 308.777 499.887 309.751 503.926C310.379 506.501 311.861 507.129 314.189 506.025C314.485 505.878 314.791 505.79 315.13 505.664C316.54 493.869 314.501 482.194 314.725 470.224C315.643 470.798 315.676 471.465 315.818 472.099C316.48 474.969 317.098 477.882 317.825 480.741C318.688 484.135 319.782 487.469 320.509 490.88C321.454 495.23 322.881 499.264 326.123 502.467C326.609 502.953 326.986 503.571 327.779 503.32C328.605 503.046 329.14 502.456 329.271 501.565C329.321 501.243 329.321 500.887 329.31 500.559C328.982 495.208 328.785 489.819 328.309 484.474C327.637 477.133 326.768 469.782 325.964 462.299C326.544 463.048 327.041 463.742 327.588 464.392C328.544 465.529 329.474 466.672 330.518 467.721C333.382 470.607 336.821 471.662 340.833 470.771C342.905 470.312 343.566 468.847 342.489 467.087L342.479 467.076Z" fill="#162A43"/>
</svg>
