<svg width="262" height="865" viewBox="0 0 262 865" fill="none" xmlns="http://www.w3.org/2000/svg">
<path d="M261.773 468.871C260.573 452.313 258.842 435.793 257.403 419.251C254.872 390.155 254.737 360.593 249.209 332.076C243.697 303.658 241.458 275.364 240.101 246.668C239.295 229.639 236.32 212.636 233.269 195.813C229.251 173.641 215.923 159.478 193.986 153.626C189.734 152.494 185.645 150.754 180.853 149.069C188.393 128.095 187.441 107.788 181.665 87.415C180.161 82.1105 179.582 76.5351 178.663 71.0735C176.321 57.1757 175.028 43.007 171.453 29.4396C167.12 12.9898 152.787 -4.47325 131.634 1.03711C130.265 1.39472 128.643 0.874567 127.161 0.647C116.224 -1.0435 107.505 2.87932 100.258 10.9688C90.6625 21.6807 85.6107 34.3919 83.8042 48.4469C81.9436 62.9245 81.4676 77.6459 78.601 91.9013C74.7283 111.152 73.6898 129.813 82.2411 148.755C75.4477 151.08 68.8436 153.371 62.2233 155.604C46.5812 160.876 35.6231 171.149 31.2529 187.111C27.8724 199.443 25.3681 212.105 23.5833 224.773C18.737 259.109 20.9871 293.883 13.5068 328.37C6.72962 359.612 6.98383 392.387 4.25783 424.496C3.30048 435.793 3.93871 447.377 1.61836 458.36C-1.10223 471.217 -0.453185 483.089 4.02525 495.296C7.13528 503.765 22.1121 514.569 33.3839 515.192C34.6441 515.262 35.4771 513.902 34.8821 512.786C32.4482 508.219 30.5984 503.142 27.1801 501.635C18.5207 497.832 17.3145 491.671 16.7412 483.739C16.3031 477.692 18.1529 475.189 24.8219 475.682C26.5743 482.206 28.3592 488.848 30.1441 495.497C30.3388 496.228 30.9878 496.743 31.7396 496.764H31.837C32.4211 496.786 32.962 496.499 33.3028 496.022C34.2223 494.722 35.4446 493.389 35.3148 492.202C33.8815 478.743 35.2175 463.843 29.706 452.243C21.9769 435.988 22.1445 421.093 26.0118 404.752C35.1742 366.016 44.104 327.227 52.8337 288.389C55.5219 276.431 57.2797 264.267 59.692 250.949C64.0082 261.016 69.563 269.403 71.099 278.474C74.6472 299.421 75.3828 320.606 67.5076 341.141C64.7167 348.423 62.5695 355.955 60.2383 363.41C52.7093 387.505 45.9592 411.736 45.5914 437.283C45.3102 456.929 46.1485 476.495 47.8685 495.968C47.7874 497.778 47.8361 499.81 48.0849 502.177C48.3823 505.022 48.8637 508.083 49.3992 511.231C50.3403 519.619 51.4275 527.995 52.6606 536.35C52.6606 536.356 52.6606 536.361 52.6606 536.367C52.6498 544.169 55.9059 558.126 56.2953 565.788C56.6415 572.636 58.183 582.649 58.5237 589.482C59.1728 589.563 59.8272 589.633 60.4817 589.693C62.8507 615.251 62.2125 640.738 56.6036 666.481C53.8235 679.251 53.0176 693.22 54.9431 706.094C59.1133 733.965 65.6795 761.474 71.1639 789.15C75.2908 809.956 72.7379 829.202 58.594 846.156C55.0243 850.436 53.1799 856.168 50.5729 861.251C51.5356 862.849 51.8007 863.283 52.7634 864.881C65.6308 864.881 78.5036 864.588 91.3602 864.989C98.9216 865.228 101.442 861.462 100.89 854.873C100.247 847.142 98.6566 839.475 98.278 831.738C98.0508 827.089 100.712 822.044 99.7167 817.726C94.8542 796.719 94.7136 775.507 98.6566 754.701C104.298 724.895 109.122 695.311 107.197 664.72C106.472 653.217 109.885 641.378 111.989 629.799C113.698 620.409 117.544 611.274 118.258 601.862C118.545 598.081 118.82 594.299 119.096 590.517C120.243 590.527 121.152 590.316 121.233 589.558C121.66 585.575 122.704 553.483 123.483 526.435C124.781 506.588 126.063 486.735 127.442 466.894C127.528 465.653 128.648 464.482 129.73 463.312C130.368 462.619 131.471 462.689 132.023 463.448C132.953 464.737 133.916 466.021 134.003 467.365C134.511 474.902 134.111 482.498 134.722 490.024C136.09 506.864 137.443 523.704 138.881 540.539C139.579 563.604 140.358 586.252 140.715 589.558C140.812 590.457 142.073 590.587 143.522 590.49C144.804 602.366 146.524 614.286 149.699 625.714C153.799 640.484 156.389 655.129 155.459 670.414C154.091 692.927 155.481 715.164 160.689 737.243C166.996 763.971 168.667 790.965 162.626 818.1C162.171 820.148 163.356 822.51 163.351 824.721C163.329 831.694 163.237 838.667 162.907 845.63C162.729 849.368 161.636 853.08 161.609 856.808C161.571 862.15 164.151 865.26 169.998 864.962C174.065 864.756 178.154 864.935 182.232 864.935C191.487 864.935 200.741 864.935 212.516 864.935C210.115 858.347 209.384 854.12 207.226 850.826C200.606 840.71 190.924 832.393 191.644 818.479C192.049 810.606 189.291 802.392 190.573 794.774C194.305 772.678 199.162 750.762 203.949 728.861C209.06 705.465 211.137 682.378 204.9 658.586C199.513 638.04 198.561 616.692 201.228 595.48C201.471 593.529 201.72 591.584 201.974 589.639C202.461 589.59 202.943 589.547 203.424 589.482C203.765 582.655 205.306 572.636 205.652 565.788C206.042 558.126 209.298 544.169 209.287 536.367C209.287 536.112 209.298 535.852 209.303 535.597C210.309 528.12 211.288 520.643 212.219 513.16C212.884 509.329 213.5 505.602 213.863 502.177C214.063 500.281 214.133 498.607 214.112 497.084C214.16 496.656 214.209 496.233 214.258 495.805C217.4 467.24 220.169 438.274 213.982 409.926C208.519 384.888 200.53 360.392 193.385 335.734C185.002 306.806 185.894 278.972 202.369 252.26C204.987 266.44 207.08 280.321 210.158 293.975C218.855 332.559 228.093 371.023 236.812 409.601C239.186 420.112 242.61 431.442 236.509 441.352C227.374 456.193 227.541 472.556 226.335 488.805C226.178 490.945 227.076 493.161 227.752 495.367C228.001 496.174 228.715 496.743 229.559 496.781C230.495 496.824 231.333 496.206 231.566 495.302C232.966 489.954 234.27 484.579 235.957 479.328C236.439 477.822 238.748 475.519 239.533 475.769C241.642 476.435 244.417 477.904 245.077 479.724C247.386 486.101 242.421 496.943 236.087 500.286C230.738 503.109 228.915 507.579 227.839 512.857C227.498 514.547 229.072 515.999 230.727 515.528C255.342 508.511 263.483 492.213 261.784 468.86L261.773 468.871Z" fill="#162A43"/>
</svg>
